<?xml version="1.0" encoding="UTF-8" standalone="no"?>
<svg
   xmlns:dc="http://purl.org/dc/elements/1.1/"
   xmlns:cc="http://creativecommons.org/ns#"
   xmlns:rdf="http://www.w3.org/1999/02/22-rdf-syntax-ns#"
   xmlns:svg="http://www.w3.org/2000/svg"
   xmlns="http://www.w3.org/2000/svg"
   xmlns:sodipodi="http://sodipodi.sourceforge.net/DTD/sodipodi-0.dtd"
   xmlns:inkscape="http://www.inkscape.org/namespaces/inkscape"
   width="294.44882"
   height="294.44882"
   id="svg8247"
   version="1.1"
   inkscape:version="0.48.3.1 r9886"
   sodipodi:docname="carbon_nano_8mm_motor_export.dxf">
  <metadata
     id="metadata10099">
    <rdf:RDF>
      <cc:Work
         rdf:about="">
        <dc:format>image/svg+xml</dc:format>
        <dc:type
           rdf:resource="http://purl.org/dc/dcmitype/StillImage" />
        <dc:title></dc:title>
      </cc:Work>
    </rdf:RDF>
  </metadata>
  <sodipodi:namedview
     pagecolor="#ffffff"
     bordercolor="#666666"
     borderopacity="1"
     objecttolerance="10"
     gridtolerance="10"
     guidetolerance="10"
     inkscape:pageopacity="0"
     inkscape:pageshadow="2"
     inkscape:window-width="1916"
     inkscape:window-height="1161"
     id="namedview10097"
     showgrid="false"
     fit-margin-top="0.4"
     fit-margin-right="0.4"
     fit-margin-bottom="0.4"
     fit-margin-left="0.4"
     inkscape:zoom="2.8284271"
     inkscape:cx="223.91292"
     inkscape:cy="145.20545"
     inkscape:window-x="1200"
     inkscape:window-y="368"
     inkscape:window-maximized="0"
     inkscape:current-layer="g8263" />
  <desc
     id="desc8249">/mnt/storage1/projects/multiwii/carbon_nano/carbon_nano_8mm_motor_export.dxf - scale = 1.000000</desc>
  <defs
     id="defs8251">
    <marker
       refY="0"
       refX="0"
       style="overflow:visible"
       id="DistanceX"
       orient="auto">
      <path
         style="stroke:#000000;stroke-width:0.5"
         d="M 3,-3 -3,3 M 0,-5 0,5"
         id="path8254"
         inkscape:connector-curvature="0" />
    </marker>
    <pattern
       height="8"
       width="8"
       patternUnits="userSpaceOnUse"
       y="0"
       x="0"
       id="Hatch">
      <path
         linecap="square"
         stroke="#000000"
         stroke-width="0.25"
         d="M8 4 l-4,4"
         id="path8257" />
      <path
         linecap="square"
         stroke="#000000"
         stroke-width="0.25"
         d="M6 2 l-4,4"
         id="path8259" />
      <path
         linecap="square"
         stroke="#000000"
         stroke-width="0.25"
         d="M4 0 l-4,4"
         id="path8261" />
    </pattern>
  </defs>
  <g
     inkscape:label="0"
     inkscape:groupmode="layer"
     id="g8263"
     transform="translate(147.22441,-905.1378)">
    <path
       style="fill:none;stroke:#000000"
       d="m 128.32795,1153.1906 2.77441,0.8043 2.65748,1.148 2.49095,1.474 2.28189,1.7717 2.04448,2.0445 1.7752,2.2854 1.47402,2.4909 1.14803,2.6575 0.80433,2.7744 0.45354,2.8559 0.0921,2.8914 -0.26927,2.8807 -0.63425,2.824 -0.97796,2.7213 -1.31456,2.576 -1.62638,2.3917 -1.91339,2.1685 -2.1685,1.9134 -2.39173,1.6264 -2.57599,1.3145 -2.72126,0.978 -2.82401,0.6342 -2.88071,0.2693 -2.89134,-0.092 -2.85591,-0.4536 -2.77441,-0.8043 -2.65748,-1.148 -2.49094,-1.474 -2.28543,-1.7752 -2.04449,-2.0445 -1.77166,-2.2819 -1.47401,-2.491 -1.14803,-2.6574 -0.80433,-2.7744 -0.45355,-2.8559 -0.0163,-0.163 -0.0229,-0.2587 -0.737031,-4.6594 -1.314567,-4.5284 -1.870866,-4.3264 -2.402362,-4.0606 -2.894882,-3.724 -1.63878,-1.6919 -28.860236,-28.8175 -3.084449,-2.9923 -6.79252,-5.2653 -7.398425,-4.3725 -7.883858,-3.4157 -8.255905,-2.3989 -8.486221,-1.3429 -6.441732,-0.2516 -24.548032,0 -6.441732,0.2516 -8.486221,1.3429 -8.255905,2.3989 -7.883858,3.4157 -7.398425,4.3725 -6.79252,5.2653 -3.084449,2.9922 -28.860236,28.8177 -1.63878,1.6919 -2.894882,3.724 -2.402362,4.0606 -1.870866,4.3264 -1.314567,4.5284 -0.737011,4.6594 -0.023,0.2587 -0.0164,0.163 -0.45332,2.8559 -0.80433,2.7744 -1.14803,2.6574 -1.47401,2.491 -1.77166,2.2819 -2.04449,2.0445 -2.28543,1.7752 -2.49094,1.474 -2.65748,1.148 -2.77441,0.8043 -2.85591,0.4536 -2.89134,0.092 -2.88071,-0.2692 -2.82401,-0.6342 -2.72126,-0.978 -2.57599,-1.3145 -2.39173,-1.6264 -2.1685,-1.9134 -1.91339,-2.1685 -1.62638,-2.3917 -1.31456,-2.576 -0.97796,-2.7213 -0.63425,-2.824 -0.26929,-2.8807 0.0921,-2.8914 0.45356,-2.8559 0.80433,-2.7744 1.14803,-2.6575 1.47402,-2.4909 1.7752,-2.2854 2.04448,-2.0445 2.28189,-1.7717 2.49095,-1.474 2.65748,-1.148 2.77441,-0.8043 2.8559,-0.4536 0.16299,-0.014 0.25867,-0.024 4.65944,-0.7369 4.52835,-1.3145 4.32638,-1.8709 4.06063,-2.4024 3.72401,-2.8949 1.69196,-1.6388 28.817711,-28.8604 2.992323,-3.0844 5.265354,-6.7925 4.372441,-7.3985 3.415748,-7.8838 2.398819,-8.2559 1.342913,-8.4862 0.251575,-6.4418 0,-24.548 -0.251575,-6.4417 -1.342913,-8.4863 -2.398819,-8.2559 -3.415748,-7.8838 -4.372441,-7.3985 -5.265354,-6.79247 -2.992323,-3.08447 -28.817741,-28.8602 -1.69194,-1.63878 -3.72401,-2.89488 -4.06063,-2.40236 -4.32638,-1.87087 -4.52835,-1.31456 -4.65944,-0.73701 -0.25867,-0.023 -0.16299,-0.0164 -2.8559,-0.45331 -2.77441,-0.80433 -2.65748,-1.14803 -2.49095,-1.47402 -2.28189,-1.77165 -2.04448,-2.04449 -1.7752,-2.28543 -1.47402,-2.49095 -1.14803,-2.65748 -0.80433,-2.77441 -0.45354,-2.8559 -0.0921,-2.89134 0.26927,-2.88071 0.63425,-2.82402 0.97796,-2.72126 1.31456,-2.57598 1.62638,-2.39173 1.91339,-2.16851 2.1685,-1.91338 2.39173,-1.62638 2.57599,-1.31457 2.72126,-0.97795 2.82401,-0.63425 2.88071,-0.2693 2.89134,0.0921 2.85591,0.45357 2.77441,0.80432 2.65748,1.14804 2.49094,1.47401 2.28543,1.7752 2.04449,2.04449 1.77166,2.28189 1.47401,2.49094 1.14803,2.65748 0.80433,2.77441 0.45355,2.85591 0.0163,0.16299 0.0229,0.25866 0.737031,4.65945 1.314567,4.52835 1.870866,4.32637 2.402362,4.06063 2.894882,3.72402 1.63878,1.6919 28.860236,28.8177 3.084449,2.99232 6.79252,5.26535 7.398425,4.37244 7.883858,3.41575 8.255905,2.39882 8.486221,1.34291 6.441732,0.25158 24.548032,0 6.441732,-0.25158 8.486221,-1.34291 8.255905,-2.39882 7.883858,-3.41575 7.398425,-4.37244 6.79252,-5.26535 3.084449,-2.99231 28.860236,-28.81769 1.63878,-1.69192 2.894882,-3.72402 2.402362,-4.06063 1.870866,-4.32637 1.314567,-4.52835 0.737011,-4.65945 0.023,-0.25866 0.0164,-0.16299 0.45332,-2.85591 0.80433,-2.77441 1.14803,-2.65748 1.47401,-2.49094 1.77166,-2.28189 2.04449,-2.04449 2.28543,-1.7752 2.49094,-1.47401 2.65748,-1.14804 2.77441,-0.80432 2.85591,-0.45355 2.89134,-0.0921 2.88071,0.26929 2.82401,0.63425 2.72126,0.97795 2.57599,1.31457 2.39173,1.62638 2.1685,1.91338 1.91339,2.16851 1.62638,2.39173 1.31456,2.57598 0.97796,2.72126 0.63425,2.82402 0.26929,2.88071 -0.0921,2.89134 -0.45355,2.8559 -0.80433,2.77441 -1.14803,2.65748 -1.47402,2.49095 -1.7752,2.28543 -2.04448,2.04449 -2.28189,1.77165 -2.49095,1.47402 -2.65748,1.14803 -2.77441,0.80433 -2.8559,0.45354 -0.16299,0.0163 -0.25867,0.0229 -4.65944,0.73703 -4.52835,1.31456 -4.32638,1.87087 -4.06063,2.40236 -3.72401,2.89488 -1.69196,1.63876 -28.817711,28.86025 -2.992323,3.08446 -5.265354,6.79249 -4.372441,7.3985 -3.415748,7.8838 -2.398819,8.2559 -1.342913,8.4863 -0.251575,6.4417 0,24.548 0.251575,6.4418 1.342913,8.4862 2.398819,8.2559 3.415748,7.8838 4.372441,7.3985 5.265354,6.7925 2.992323,3.0846 28.817741,28.8603 1.69194,1.6387 3.72401,2.8949 4.06063,2.4024 4.32638,1.8709 4.52835,1.3145 4.65944,0.737 0.25867,0.024 0.16299,0.013 z"
       id="path8679"
       inkscape:connector-curvature="0"
       sodipodi:nodetypes="ccccccccccccccccccccccccccccccccccccccccccccccccccccccccccccccccccccccccccccccccccccccccccccccccccccccccccccccccccccccccccccccccccccccccccccccccccccccccccccccccccccccccccccccccccccccccccccccccccccccccccccccccccccccccccccccccccccccccccccccccccccccccccccccccccccccccccccccccccccc" />
    <path
       style="fill:none;stroke:#ff0000"
       d="m -121.08543,1161.6661 1.73622,0.3898 1.67598,0.6024 1.58386,0.8078 1.47402,1.0028 1.33228,1.1764 1.17638,1.3323 1.00275,1.474 0.80788,1.5838 0.60236,1.676 0.38976,1.7362 0.16654,1.7717 -0.0567,1.7787 -0.27992,1.7611 -0.49606,1.7078 -0.70512,1.6335 -0.90354,1.5307 -1.09488,1.4067 -1.25788,1.2579 -1.40669,1.0949 -1.53071,0.9035 -1.63346,0.7051 -1.70788,0.4961 -1.76102,0.2799 -1.77874,0.057 -1.77165,-0.1667 -1.73622,-0.3898 -1.67599,-0.6024 -1.58386,-0.8078 -1.47401,-1.0028 -1.33229,-1.1764 -1.17637,-1.3323 -1.00276,-1.474 -0.80787,-1.5838 -0.60237,-1.676 -0.38976,-1.7362 -0.16653,-1.7717 0.0567,-1.7787 0.27991,-1.7611 0.49606,-1.7078 0.70512,-1.6335 0.90354,-1.5307 1.09489,-1.4067 1.25787,-1.2579 1.40669,-1.0949 1.53071,-0.9035 1.63347,-0.7051 1.70787,-0.4961 1.76102,-0.2799 1.77874,-0.057 z"
       id="path8907"
       inkscape:connector-curvature="0"
       sodipodi:nodetypes="ccccccccccccccccccccccccccccccccccccccccccccccccccc" />
    <path
       style="fill:none;stroke:#ff0000"
       d="m -109.30394,931.27677 -0.38976,1.73622 -0.60236,1.67599 -0.80788,1.58385 -1.00275,1.47402 -1.17638,1.33228 -1.33228,1.17638 -1.47402,1.00276 -1.58386,0.80787 -1.67598,0.60236 -1.73622,0.38977 -1.77166,0.16653 -1.77874,-0.0567 -1.76102,-0.27991 -1.70787,-0.49606 -1.63347,-0.70512 -1.53071,-0.90355 -1.40669,-1.09488 -1.25787,-1.25787 -1.09489,-1.40669 -0.90354,-1.53071 -0.70512,-1.63347 -0.49606,-1.70787 -0.27992,-1.76103 -0.0567,-1.77873 0.16654,-1.77166 0.38976,-1.73622 0.60237,-1.67598 0.80787,-1.58386 1.00276,-1.47402 1.17637,-1.33228 1.33229,-1.17638 1.47401,-1.00276 1.58386,-0.80787 1.67599,-0.60236 1.73622,-0.38977 1.77165,-0.16653 1.77874,0.0567 1.76102,0.27992 1.70788,0.49607 1.63346,0.70511 1.53071,0.90355 1.40669,1.09488 1.25788,1.25787 1.09488,1.4067 0.90354,1.53071 0.70512,1.63346 0.49606,1.70787 0.27993,1.76103 0.0567,1.77874 z"
       id="path9031"
       inkscape:connector-curvature="0"
       sodipodi:nodetypes="ccccccccccccccccccccccccccccccccccccccccccccccccccc" />
    <path
       style="fill:none;stroke:#ff0000"
       d="m -106.59685,1163.3777 -0.64843,-0.1454 -0.6307,-0.2268 -0.59528,-0.3047 -0.54921,-0.3756 -0.50315,-0.4394 -0.43937,-0.5031 -0.37559,-0.5492 -0.30473,-0.5953 -0.22677,-0.6307 -0.14527,-0.6484 -0.0602,-0.6662 0.0177,-0.6661 0.1063,-0.6555 0.18426,-0.6414 0.26574,-0.6165 0.34016,-0.574 0.41103,-0.528 0.47126,-0.4712 0.52795,-0.4075 0.57401,-0.3437 0.613,-0.2622 0.64133,-0.1843 0.65552,-0.1063 0.66614,-0.021 0.66968,0.06 0.64843,0.1489 0.63071,0.2268 0.59173,0.3012 0.55276,0.3756 0.4996,0.4429 0.44292,0.4996 0.37559,0.5527 0.30118,0.5918 0.22677,0.6307 0.14882,0.6484 0.0602,0.6697 -0.0213,0.6661 -0.10628,0.6555 -0.18425,0.6414 -0.2622,0.613 -0.3437,0.574 -0.40748,0.5279 -0.47126,0.4713 -0.52795,0.411 -0.57402,0.3402 -0.61654,0.2657 -0.64133,0.1843 -0.65552,0.1063 -0.66614,0.018 z"
       id="path9157"
       inkscape:connector-curvature="0"
       sodipodi:nodetypes="ccccccccccccccccccccccccccccccccccccccccccccccccccc" />
    <path
       style="fill:none;stroke:#ff0000"
       d="m -106.92284,951.78189 -0.64133,-0.18425 -0.613,-0.26221 -0.57401,-0.3437 -0.52795,-0.40748 -0.47126,-0.47126 -0.41103,-0.52795 -0.34016,-0.57402 -0.26574,-0.61653 -0.18426,-0.64134 -0.10629,-0.65551 -0.0177,-0.66614 0.0602,-0.66615 0.14529,-0.64842 0.22677,-0.63071 0.30473,-0.59528 0.37559,-0.54921 0.43937,-0.50315 0.50315,-0.43937 0.54921,-0.37559 0.59528,-0.30472 0.6307,-0.22677 0.64843,-0.14528 0.66614,-0.0602 0.66614,0.0177 0.65552,0.10631 0.64133,0.18425 0.61654,0.26575 0.57402,0.34016 0.52795,0.41102 0.47126,0.47126 0.40748,0.52795 0.3437,0.57402 0.2622,0.61299 0.18425,0.64134 0.1063,0.65551 0.0213,0.66614 -0.0602,0.66969 -0.14884,0.64842 -0.22677,0.63071 -0.30118,0.59173 -0.37559,0.55276 -0.44292,0.49961 -0.4996,0.44291 -0.55276,0.37559 -0.59173,0.30118 -0.63071,0.22677 -0.64843,0.14882 -0.66968,0.0602 -0.66614,-0.0213 z"
       id="path9257"
       inkscape:connector-curvature="0"
       sodipodi:nodetypes="ccccccccccccccccccccccccccccccccccccccccccccccccccc" />
    <path
       style="fill:none;stroke:#ff0000"
       d="m -37.867323,1062.1169 0.272835,-0.8468 0.379134,-0.8079 0.478346,-0.7512 0.566929,-0.6838 0.648425,-0.6095 0.719292,-0.5244 0.779527,-0.4287 0.829134,-0.326 0.861024,-0.2232 0.882283,-0.1099 20.381103,0 0.882283,0.1099 0.861024,0.2232 0.829134,0.326 0.779527,0.4287 0.719292,0.5244 0.648425,0.6095 0.566929,0.6838 0.478346,0.7512 0.379134,0.8079 0.272835,0.8468 0.166535,0.8717 0.056693,0.8894 0,19.4881 -0.056693,0.8894 -0.166535,0.8717 -0.272835,0.8468 -0.379134,0.8079 -0.478346,0.7512 -0.566929,0.6838 -0.648425,0.6095 -0.719292,0.5244 -0.779527,0.4287 -0.829134,0.326 -0.861024,0.2232 -0.882283,0.1099 -20.381103,0 -0.882283,-0.1099 -0.861024,-0.2232 -0.829134,-0.326 -0.779527,-0.4287 -0.719292,-0.5244 -0.648425,-0.6095 -0.566929,-0.6838 -0.478346,-0.7512 -0.379134,-0.8079 -0.272835,-0.8468 -0.166535,-0.8717 -0.05669,-0.8894 -1e-6,-19.4881 0.05669,-0.8894 z"
       id="path9285"
       inkscape:connector-curvature="0"
       sodipodi:nodetypes="ccccccccccccccccccccccccccccccccccccccccccccccccccccc" />
    <path
       style="fill:none;stroke:#ff0000"
       d="m -38.090551,1021.3583 0.05669,-0.8894 0.166537,-0.8717 0.272835,-0.8468 0.379134,-0.8079 0.478346,-0.7512 0.566929,-0.6838 0.648425,-0.6095 0.719292,-0.5244 0.779527,-0.4287 0.829134,-0.326 0.861024,-0.2232 0.882283,-0.1099 20.381103,0 0.882283,0.1099 0.861024,0.2232 0.829134,0.326 0.779527,0.4287 0.719292,0.5244 0.648425,0.6095 0.566929,0.6838 0.478346,0.7512 0.379134,0.8079 0.272835,0.8468 0.166535,0.8717 0.056693,0.8894 0,19.4882 -0.056693,0.8893 -0.166535,0.8717 -0.272835,0.8468 -0.379134,0.8079 -0.478346,0.7512 -0.566929,0.6838 -0.648425,0.6095 -0.719292,0.5244 -0.779527,0.4287 -0.829134,0.326 -0.861024,0.2233 -0.882283,0.1098 -20.381103,0 -0.882283,-0.1098 -0.861024,-0.2233 -0.829134,-0.326 -0.779527,-0.4287 -0.719292,-0.5244 -0.648425,-0.6095 -0.566929,-0.6838 -0.478346,-0.7512 -0.379134,-0.8079 -0.272835,-0.8468 -0.166535,-0.8717 -0.05669,-0.8893 z"
       id="path9385"
       inkscape:connector-curvature="0"
       sodipodi:nodetypes="ccccccccccccccccccccccccccccccccccccccccccccccccccccc" />
    <path
       style="fill:none;stroke:#ff0000"
       d="m 38.090551,1083.3661 -0.05669,0.8894 -0.166537,0.8717 -0.272835,0.8468 -0.379134,0.8079 -0.478346,0.7512 -0.566929,0.6838 -0.648425,0.6095 -0.719292,0.5244 -0.779527,0.4287 -0.829134,0.326 -0.861024,0.2232 -0.882283,0.1099 -20.381103,0 -0.882283,-0.1099 -0.861024,-0.2232 -0.829134,-0.326 -0.779527,-0.4287 -0.719292,-0.5244 -0.648425,-0.6095 -0.566929,-0.6838 -0.478346,-0.7512 -0.379134,-0.8079 -0.272835,-0.8468 -0.166535,-0.8717 -0.056693,-0.8894 0,-19.4881 0.056693,-0.8894 0.166535,-0.8717 0.272835,-0.8468 0.379134,-0.8079 0.478346,-0.7512 0.566929,-0.6838 0.648425,-0.6095 0.719292,-0.5244 0.779527,-0.4287 0.829134,-0.326 0.861024,-0.2232 0.882283,-0.1099 20.381103,0 0.882283,0.1099 0.861024,0.2232 0.829134,0.326 0.779527,0.4287 0.719292,0.5244 0.648425,0.6095 0.566929,0.6838 0.478346,0.7512 0.379134,0.8079 0.272835,0.8468 0.166535,0.8717 0.05669,0.8894 z"
       id="path9541"
       inkscape:connector-curvature="0"
       sodipodi:nodetypes="ccccccccccccccccccccccccccccccccccccccccccccccccccccc" />
    <path
       style="fill:none;stroke:#ff0000"
       d="m 37.867323,1042.6075 -0.272835,0.8468 -0.379134,0.8079 -0.478346,0.7512 -0.566929,0.6838 -0.648425,0.6095 -0.719292,0.5244 -0.779527,0.4287 -0.829134,0.326 -0.861024,0.2233 -0.882283,0.1098 -20.381103,0 -0.882283,-0.1098 -0.861024,-0.2233 -0.829134,-0.326 -0.779527,-0.4287 -0.719292,-0.5244 -0.648425,-0.6095 -0.566929,-0.6838 -0.478346,-0.7512 -0.379134,-0.8079 -0.272835,-0.8468 -0.166535,-0.8717 -0.056693,-0.8893 0,-19.4882 0.056693,-0.8894 0.166535,-0.8717 0.272835,-0.8468 0.379134,-0.8079 0.478346,-0.7512 0.566929,-0.6838 0.648425,-0.6095 0.719292,-0.5244 0.779527,-0.4287 0.829134,-0.326 0.861024,-0.2232 0.882283,-0.1099 20.381103,0 0.882283,0.1099 0.861024,0.2232 0.829134,0.326 0.779527,0.4287 0.719292,0.5244 0.648425,0.6095 0.566929,0.6838 0.478346,0.7512 0.379134,0.8079 0.272835,0.8468 0.166535,0.8717 0.05669,0.8894 1e-6,19.4882 -0.05669,0.8893 z"
       id="path9649"
       inkscape:connector-curvature="0"
       sodipodi:nodetypes="ccccccccccccccccccccccccccccccccccccccccccccccccccccc" />
    <path
       style="fill:none;stroke:#ff0000"
       d="m 104.60905,1163.3138 -0.64133,-0.1843 -0.61654,-0.2657 -0.57402,-0.3402 -0.52795,-0.411 -0.47126,-0.4713 -0.40748,-0.5279 -0.3437,-0.574 -0.2622,-0.613 -0.18425,-0.6414 -0.1063,-0.6555 -0.0213,-0.6661 0.0602,-0.6697 0.14883,-0.6484 0.22677,-0.6307 0.30118,-0.5918 0.37559,-0.5527 0.44292,-0.4996 0.4996,-0.4429 0.55276,-0.3756 0.59173,-0.3012 0.63071,-0.2268 0.64843,-0.1488 0.66968,-0.06 0.66614,0.021 0.65552,0.1064 0.64133,0.1843 0.613,0.2622 0.57401,0.3437 0.52795,0.4075 0.47126,0.4712 0.41103,0.528 0.34016,0.574 0.26574,0.6165 0.18426,0.6414 0.10629,0.6555 0.0177,0.6661 -0.0602,0.6662 -0.14529,0.6484 -0.22677,0.6307 -0.30473,0.5953 -0.37559,0.5492 -0.43937,0.5031 -0.50315,0.4394 -0.54921,0.3756 -0.59528,0.3047 -0.6307,0.2268 -0.64843,0.1453 -0.66614,0.06 -0.66614,-0.018 z"
       id="path9773"
       inkscape:connector-curvature="0"
       sodipodi:nodetypes="ccccccccccccccccccccccccccccccccccccccccccccccccccc" />
    <path
       style="fill:none;stroke:#ff0000"
       d="m 104.28307,951.70039 -0.63071,-0.22677 -0.59173,-0.30118 -0.55276,-0.37559 -0.4996,-0.44291 -0.44292,-0.49961 -0.37559,-0.55276 -0.30118,-0.59173 -0.22677,-0.63071 -0.14882,-0.64842 -0.0602,-0.66969 0.0213,-0.66614 0.10628,-0.65551 0.18425,-0.64134 0.2622,-0.61299 0.3437,-0.57402 0.40748,-0.52795 0.47126,-0.47126 0.52795,-0.41102 0.57402,-0.34016 0.61654,-0.26575 0.64133,-0.18425 0.65552,-0.1063 0.66614,-0.0177 0.66614,0.0602 0.64843,0.1453 0.6307,0.22677 0.59528,0.30472 0.54921,0.37559 0.50315,0.43937 0.43937,0.50315 0.37559,0.54921 0.30473,0.59528 0.22677,0.63071 0.14527,0.64842 0.0602,0.66615 -0.0177,0.66614 -0.1063,0.65551 -0.18426,0.64134 -0.26574,0.61653 -0.34016,0.57402 -0.41103,0.52795 -0.47126,0.47126 -0.52795,0.40748 -0.57401,0.3437 -0.613,0.26221 -0.64133,0.18425 -0.65552,0.1063 -0.66614,0.0213 -0.66968,-0.0602 z"
       id="path9875"
       inkscape:connector-curvature="0"
       sodipodi:nodetypes="ccccccccccccccccccccccccccccccccccccccccccccccccccc" />
    <path
       style="fill:none;stroke:#ff0000"
       d="m 126.39685,1161.8362 1.70787,0.4961 1.63347,0.7051 1.53071,0.9035 1.40669,1.0949 1.25787,1.2579 1.09489,1.4067 0.90354,1.5307 0.70512,1.6335 0.49606,1.7078 0.27992,1.7611 0.0567,1.7787 -0.16654,1.7717 -0.38976,1.7362 -0.60237,1.676 -0.80787,1.5838 -1.00276,1.474 -1.17637,1.3323 -1.33229,1.1764 -1.47401,1.0028 -1.58386,0.8078 -1.67599,0.6024 -1.73622,0.3898 -1.77165,0.1665 -1.77874,-0.057 -1.76102,-0.2798 -1.70788,-0.4961 -1.63346,-0.7051 -1.53071,-0.9035 -1.40669,-1.0949 -1.25788,-1.2579 -1.09488,-1.4067 -0.90354,-1.5307 -0.70512,-1.6335 -0.49606,-1.7078 -0.27993,-1.7611 -0.0567,-1.7787 0.16655,-1.7717 0.38976,-1.7362 0.60236,-1.676 0.80788,-1.5838 1.00275,-1.474 1.17638,-1.3323 1.33228,-1.1764 1.47402,-1.0028 1.58386,-0.8078 1.67598,-0.6024 1.73622,-0.3898 1.77166,-0.1665 1.77874,0.057 z"
       id="path9923"
       inkscape:connector-curvature="0"
       sodipodi:nodetypes="ccccccccccccccccccccccccccccccccccccccccccccccccccc" />
    <path
       style="fill:none;stroke:#ff0000"
       d="m 137.13307,932.15197 -0.49606,1.70787 -0.70512,1.63347 -0.90354,1.53071 -1.09489,1.40669 -1.25787,1.25787 -1.40669,1.09488 -1.53071,0.90355 -1.63347,0.70512 -1.70787,0.49606 -1.76102,0.27992 -1.77874,0.0567 -1.77166,-0.16653 -1.73622,-0.38977 -1.67598,-0.60236 -1.58386,-0.80787 -1.47402,-1.00276 -1.33228,-1.17638 -1.17638,-1.33228 -1.00275,-1.47402 -0.80788,-1.58385 -0.60236,-1.67599 -0.38976,-1.73622 -0.16654,-1.77165 0.0567,-1.77874 0.27993,-1.76103 0.49606,-1.70787 0.70512,-1.63346 0.90354,-1.53071 1.09488,-1.4067 1.25788,-1.25787 1.40669,-1.09488 1.53071,-0.90355 1.63346,-0.70511 1.70788,-0.49607 1.76102,-0.27992 1.77874,-0.0567 1.77165,0.16654 1.73622,0.38977 1.67599,0.60236 1.58386,0.80787 1.47401,1.00276 1.33229,1.17638 1.17637,1.33228 1.00276,1.47402 0.80787,1.58386 0.60237,1.67598 0.38976,1.73622 0.16653,1.77166 -0.0567,1.77873 z"
       id="path10049"
       inkscape:connector-curvature="0"
       sodipodi:nodetypes="ccccccccccccccccccccccccccccccccccccccccccccccccccc" />
  </g>
</svg>
