<?xml version="1.0" encoding="UTF-8" standalone="no"?>
<svg
   xmlns:dc="http://purl.org/dc/elements/1.1/"
   xmlns:cc="http://creativecommons.org/ns#"
   xmlns:rdf="http://www.w3.org/1999/02/22-rdf-syntax-ns#"
   xmlns:svg="http://www.w3.org/2000/svg"
   xmlns="http://www.w3.org/2000/svg"
   xmlns:sodipodi="http://sodipodi.sourceforge.net/DTD/sodipodi-0.dtd"
   xmlns:inkscape="http://www.inkscape.org/namespaces/inkscape"
   width="293.6488"
   height="293.64883"
   id="svg3004"
   version="1.1"
   inkscape:version="0.48.3.1 r9886"
   sodipodi:docname="carbon_nano_8mm_motor_export.dxf">
  <metadata
     id="metadata4856">
    <rdf:RDF>
      <cc:Work
         rdf:about="">
        <dc:format>image/svg+xml</dc:format>
        <dc:type
           rdf:resource="http://purl.org/dc/dcmitype/StillImage" />
        <dc:title></dc:title>
      </cc:Work>
    </rdf:RDF>
  </metadata>
  <sodipodi:namedview
     pagecolor="#ffffff"
     bordercolor="#666666"
     borderopacity="1"
     objecttolerance="10"
     gridtolerance="10"
     guidetolerance="10"
     inkscape:pageopacity="0"
     inkscape:pageshadow="2"
     inkscape:window-width="1916"
     inkscape:window-height="1161"
     id="namedview4854"
     showgrid="false"
     fit-margin-top="0"
     fit-margin-left="0"
     fit-margin-right="0"
     fit-margin-bottom="0"
     inkscape:zoom="3.6527348"
     inkscape:cx="193.93587"
     inkscape:cy="178.00391"
     inkscape:window-x="1200"
     inkscape:window-y="368"
     inkscape:window-maximized="0"
     inkscape:current-layer="g3020" />
  <desc
     id="desc3006">/mnt/storage1/projects/multiwii/carbon_nano/carbon_nano_8mm_motor_export.dxf - scale = 1.000000</desc>
  <defs
     id="defs3008">
    <marker
       refY="0"
       refX="0"
       style="overflow:visible"
       id="DistanceX"
       orient="auto">
      <path
         style="stroke:#000000;stroke-width:0.5"
         d="M 3,-3 -3,3 M 0,-5 0,5"
         id="path3011"
         inkscape:connector-curvature="0" />
    </marker>
    <pattern
       height="8"
       width="8"
       patternUnits="userSpaceOnUse"
       y="0"
       x="0"
       id="Hatch">
      <path
         linecap="square"
         stroke="#000000"
         stroke-width="0.25"
         d="M8 4 l-4,4"
         id="path3014" />
      <path
         linecap="square"
         stroke="#000000"
         stroke-width="0.25"
         d="M6 2 l-4,4"
         id="path3016" />
      <path
         linecap="square"
         stroke="#000000"
         stroke-width="0.25"
         d="M4 0 l-4,4"
         id="path3018" />
    </pattern>
  </defs>
  <g
     inkscape:label="0"
     inkscape:groupmode="layer"
     id="g3020"
     transform="translate(146.82441,-905.53779)">
    <path
       style="fill:none;stroke:#000000"
       d="m 128.32795,1153.1906 c 15.44486,2.8448 23.38641,23.0443 13.86631,35.5736 -8.45569,13.4406 -30.51355,12.9269 -38.36252,-0.8659 -5.042605,-8.2508 -2.96702,-18.9684 -9.110264,-26.8591 -8.90552,-11.9541 -20.840206,-21.5145 -31.058868,-32.4848 -13.396687,-14.8199 -33.81849,-23.7611 -53.8805433,-23.0422 -17.6017439,0.046 -35.9261797,-1.4812 -52.0991977,7.0182 -17.201083,8.5251 -28.513158,24.3114 -42.427182,37.1053 -8.781289,7.5018 -15.24945,18.0526 -15.891585,29.8394 -1.92567,15.7594 -22.10918,24.6914 -35.07972,15.5487 -13.58917,-7.918 -14.04641,-29.6325 -0.84941,-38.1631 8.32379,-5.9033 19.67649,-3.3591 27.88765,-9.7755 11.954346,-8.9056 21.514698,-20.8403 32.48499,-31.059 14.820672,-13.3972 23.760987,-33.8185 23.042334,-53.8806 -0.04614,-17.6017 1.481211,-35.9262 -7.018188,-52.0992 -8.524849,-17.20095 -24.312109,-28.51339 -37.105499,-42.42727 -7.501857,-8.78111 -18.052597,-15.24929 -29.839377,-15.89144 -15.7594,-1.92563 -24.6916,-22.10921 -15.54866,-35.07971 7.9179,-13.58919 29.63251,-14.04641 38.16299,-0.84939 5.902797,8.32229 3.36225,19.67892 9.776825,27.88763 8.905471,11.95417 20.840201,21.51457 31.058877,32.48487 13.397075,14.82074 33.818501,23.76099 53.8805433,23.04238 17.6017267,-0.0461 35.9261797,1.48123 52.0991817,-7.01817 17.200981,-8.52489 28.513382,-24.31205 42.427286,-37.10548 8.781229,-7.50184 15.249334,-18.05258 15.891497,-29.83933 1.92564,-15.7594 22.10921,-24.69161 35.07972,-15.54865 13.58919,7.9179 14.0464,29.63251 0.84939,38.16299 -8.32229,5.9028 -19.67893,3.36223 -27.88764,9.77681 -11.95423,8.90534 -21.514621,20.84014 -32.48494,31.05886 -14.820794,13.3972 -23.760991,33.8185 -23.042384,53.8806 0.04615,17.6017 -1.481218,35.9262 7.018188,52.0992 8.524908,17.201 24.311974,28.5137 37.105561,42.4275 7.651525,9.0795 18.609135,15.3921 30.659345,16.0198 l 0.39529,0.063 z"
       id="path3436"
       inkscape:connector-curvature="0" />
    <path
       style="fill:none;stroke:#ff0000"
       d="m -121.08543,1161.6661 1.73622,0.3898 1.67598,0.6024 1.58386,0.8078 1.47402,1.0028 1.33228,1.1764 1.17638,1.3323 1.00275,1.474 0.80788,1.5838 0.60236,1.676 0.38976,1.7362 0.16654,1.7717 -0.0567,1.7787 -0.27992,1.7611 -0.49606,1.7078 -0.70512,1.6335 -0.90354,1.5307 -1.09488,1.4067 -1.25788,1.2579 -1.40669,1.0949 -1.53071,0.9035 -1.63346,0.7051 -1.70788,0.4961 -1.76102,0.2799 -1.77874,0.057 -1.77165,-0.1667 -1.73622,-0.3898 -1.67599,-0.6024 -1.58386,-0.8078 -1.47401,-1.0028 -1.33229,-1.1764 -1.17637,-1.3323 -1.00276,-1.474 -0.80787,-1.5838 -0.60237,-1.676 -0.38976,-1.7362 -0.16653,-1.7717 0.0567,-1.7787 0.27991,-1.7611 0.49606,-1.7078 0.70512,-1.6335 0.90354,-1.5307 1.09489,-1.4067 1.25787,-1.2579 1.40669,-1.0949 1.53071,-0.9035 1.63347,-0.7051 1.70787,-0.4961 1.76102,-0.2799 1.77874,-0.057 z"
       id="path3664"
       inkscape:connector-curvature="0"
       sodipodi:nodetypes="ccccccccccccccccccccccccccccccccccccccccccccccccccc" />
    <path
       style="fill:none;stroke:#ff0000"
       d="m -137.30315,926.84055 0.38976,-1.73622 0.60237,-1.67598 0.80787,-1.58386 1.00276,-1.47402 1.17637,-1.33228 1.33229,-1.17638 1.47401,-1.00276 1.58386,-0.80787 1.67599,-0.60236 1.73622,-0.38977 1.77165,-0.16653 1.77874,0.0567 1.76102,0.27992 1.70788,0.49607 1.63346,0.70511 1.53071,0.90355 1.40669,1.09488 1.25788,1.25787 1.09488,1.4067 0.90354,1.53071 0.70512,1.63346 0.49606,1.70787 0.27993,1.76103 0.0567,1.77874 -0.16655,1.77165 -0.38976,1.73622 -0.60236,1.67599 -0.80788,1.58385 -1.00275,1.47402 -1.17638,1.33228 -1.33228,1.17638 -1.47402,1.00276 -1.58386,0.80787 -1.67598,0.60236 -1.73622,0.38977 -1.77166,0.16653 -1.77874,-0.0567 -1.76102,-0.27991 -1.70787,-0.49606 -1.63347,-0.70512 -1.53071,-0.90355 -1.40669,-1.09488 -1.25787,-1.25787 -1.09489,-1.40669 -0.90354,-1.53071 -0.70512,-1.63347 -0.49606,-1.70787 -0.27992,-1.76103 -0.0567,-1.77873 z"
       id="path3738"
       inkscape:connector-curvature="0"
       sodipodi:nodetypes="ccccccccccccccccccccccccccccccccccccccccccccccccccc" />
    <path
       style="fill:none;stroke:#ff0000"
       d="m -106.59685,1163.3777 -0.64843,-0.1454 -0.6307,-0.2268 -0.59528,-0.3047 -0.54921,-0.3756 -0.50315,-0.4394 -0.43937,-0.5031 -0.37559,-0.5492 -0.30473,-0.5953 -0.22677,-0.6307 -0.14527,-0.6484 -0.0602,-0.6662 0.0177,-0.6661 0.1063,-0.6555 0.18426,-0.6414 0.26574,-0.6165 0.34016,-0.574 0.41103,-0.528 0.47126,-0.4712 0.52795,-0.4075 0.57401,-0.3437 0.613,-0.2622 0.64133,-0.1843 0.65552,-0.1063 0.66614,-0.021 0.66968,0.06 0.64843,0.1489 0.63071,0.2268 0.59173,0.3012 0.55276,0.3756 0.4996,0.4429 0.44292,0.4996 0.37559,0.5527 0.30118,0.5918 0.22677,0.6307 0.14882,0.6484 0.0602,0.6697 -0.0213,0.6661 -0.10628,0.6555 -0.18425,0.6414 -0.2622,0.613 -0.3437,0.574 -0.40748,0.5279 -0.47126,0.4713 -0.52795,0.411 -0.57402,0.3402 -0.61654,0.2657 -0.64133,0.1843 -0.65552,0.1063 -0.66614,0.018 z"
       id="path3914"
       inkscape:connector-curvature="0"
       sodipodi:nodetypes="ccccccccccccccccccccccccccccccccccccccccccccccccccc" />
    <path
       style="fill:none;stroke:#ff0000"
       d="m -110.87008,945.11693 0.22677,-0.63071 0.30473,-0.59528 0.37559,-0.54921 0.43937,-0.50315 0.50315,-0.43937 0.54921,-0.37559 0.59528,-0.30472 0.6307,-0.22677 0.64843,-0.14528 0.66614,-0.0602 0.66614,0.0177 0.65552,0.10631 0.64133,0.18425 0.61654,0.26575 0.57402,0.34016 0.52795,0.41102 0.47126,0.47126 0.40748,0.52795 0.3437,0.57402 0.2622,0.61299 0.18425,0.64134 0.1063,0.65551 0.0213,0.66614 -0.0602,0.66969 -0.14884,0.64842 -0.22677,0.63071 -0.30118,0.59173 -0.37559,0.55276 -0.44292,0.49961 -0.4996,0.44291 -0.55276,0.37559 -0.59173,0.30118 -0.63071,0.22677 -0.64843,0.14882 -0.66968,0.0602 -0.66614,-0.0213 -0.65552,-0.10628 -0.64133,-0.18425 -0.613,-0.26221 -0.57401,-0.3437 -0.52795,-0.40748 -0.47126,-0.47126 -0.41103,-0.52795 -0.34016,-0.57402 -0.26574,-0.61653 -0.18426,-0.64134 -0.10629,-0.65551 -0.0177,-0.66614 0.0602,-0.66615 z"
       id="path3940"
       inkscape:connector-curvature="0"
       sodipodi:nodetypes="ccccccccccccccccccccccccccccccccccccccccccccccccccc" />
    <path
       style="fill:none;stroke:#ff0000"
       d="m -37.867323,1062.1169 c 0.833192,-3.5793 4.608232,-5.8056 8.163018,-5.3114 6.498265,0.071 13.014243,-0.143 19.501363,0.1079 3.7053986,0.6149 6.2274259,4.3981 5.773808,8.0559 -0.064689,6.4983 0.1296817,13.0118 -0.09765,19.5006 -0.4859901,3.7904 -4.347961,6.4683 -8.0703348,5.9687 -6.499338,-0.054 -13.012068,0.1079 -19.503037,-0.081 -3.80557,-0.4844 -6.461222,-4.3543 -5.990392,-8.0829 0.06469,-6.4983 -0.129679,-13.0118 0.09765,-19.5006 0.04186,-0.2191 0.08372,-0.4382 0.125579,-0.6573 z"
       id="path4042"
       inkscape:connector-curvature="0" />
    <path
       style="fill:none;stroke:#ff0000"
       d="m -38.090551,1021.3583 c -0.107352,-4.1326 3.881015,-7.5927 7.949723,-7.0725 6.572092,0.054 13.157576,-0.1079 19.721298,0.081 3.8055709,0.4844 6.4612196,4.3543 5.990395,8.0829 -0.064689,6.4983 0.1296809,13.0118 -0.09765,19.5006 -0.4859995,3.7904 -4.3479594,6.4684 -8.0703348,5.9687 -6.499344,-0.054 -13.012056,0.1078 -19.503046,-0.081 -3.805484,-0.4844 -6.461197,-4.3541 -5.990383,-8.0828 -10e-7,-6.1323 -10e-7,-12.2646 -2e-6,-18.3969 z"
       id="path4142"
       inkscape:connector-curvature="0" />
    <path
       style="fill:none;stroke:#ff0000"
       d="m 38.090551,1083.3661 c 0.107352,4.1326 -3.881015,7.5927 -7.949723,7.0725 -6.572092,-0.054 -13.157576,0.1079 -19.721298,-0.081 -3.8055709,-0.4844 -6.4612196,-4.3543 -5.990395,-8.0829 0.064689,-6.4983 -0.1296817,-13.0118 0.09765,-19.5006 0.4859901,-3.7904 4.347961,-6.4683 8.0703348,-5.9687 6.499338,0.054 13.012068,-0.1079 19.503037,0.081 3.80557,0.4844 6.461222,4.3543 5.990392,8.0829 10e-7,6.1323 10e-7,12.2645 2e-6,18.3968 z"
       id="path4298"
       inkscape:connector-curvature="0" />
    <path
       style="fill:none;stroke:#ff0000"
       d="m 37.867323,1042.6075 c -0.833204,3.5792 -4.608227,5.8057 -8.163018,5.3114 -6.498273,-0.071 -13.014227,0.1429 -19.501375,-0.1078 -3.7053047,-0.6151 -6.227403,-4.398 -5.773796,-8.0559 0.064688,-6.4983 -0.1296805,-13.0119 0.09765,-19.5007 0.4859901,-3.7904 4.347961,-6.4683 8.0703348,-5.9687 6.499338,0.054 13.012068,-0.1079 19.503037,0.081 3.80557,0.4844 6.461222,4.3543 5.990392,8.0829 -0.06469,6.4983 0.129678,13.0118 -0.09765,19.5006 -0.04186,0.2191 -0.08372,0.4382 -0.125579,0.6573 z"
       id="path4406"
       inkscape:connector-curvature="0" />
    <path
       style="fill:none;stroke:#ff0000"
       d="m 104.60905,1163.3138 -0.64133,-0.1843 -0.61654,-0.2657 -0.57402,-0.3402 -0.52795,-0.411 -0.47126,-0.4713 -0.40748,-0.5279 -0.3437,-0.574 -0.2622,-0.613 -0.18425,-0.6414 -0.1063,-0.6555 -0.0213,-0.6661 0.0602,-0.6697 0.14884,-0.6484 0.22677,-0.6307 0.30118,-0.5918 0.37559,-0.5527 0.44292,-0.4996 0.4996,-0.4429 0.55276,-0.3756 0.59173,-0.3012 0.63071,-0.2268 0.64843,-0.1488 0.66968,-0.06 0.66614,0.021 0.65552,0.1064 0.64133,0.1843 0.613,0.2622 0.57401,0.3437 0.52795,0.4075 0.47126,0.4712 0.41103,0.528 0.34016,0.574 0.26574,0.6165 0.18426,0.6414 0.10629,0.6555 0.0177,0.6661 -0.0602,0.6662 -0.14529,0.6484 -0.22677,0.6307 -0.30473,0.5953 -0.37559,0.5492 -0.43937,0.5031 -0.50315,0.4394 -0.54921,0.3756 -0.59528,0.3047 -0.6307,0.2268 -0.64843,0.1453 -0.66614,0.06 -0.66614,-0.018 z"
       id="path4530"
       inkscape:connector-curvature="0"
       sodipodi:nodetypes="ccccccccccccccccccccccccccccccccccccccccccccccccccc" />
    <path
       style="fill:none;stroke:#ff0000"
       d="m 104.9315,951.84923 -0.64843,-0.14884 -0.63071,-0.22677 -0.59173,-0.30118 -0.55276,-0.37559 -0.4996,-0.44291 -0.44292,-0.49961 -0.37559,-0.55276 -0.30118,-0.59173 -0.22677,-0.63071 -0.14882,-0.64842 -0.0602,-0.66969 0.0213,-0.66614 0.10628,-0.65551 0.18425,-0.64134 0.2622,-0.61299 0.3437,-0.57402 0.40748,-0.52795 0.47126,-0.47126 0.52795,-0.41102 0.57402,-0.34016 0.61654,-0.26575 0.64133,-0.18425 0.65552,-0.1063 0.66614,-0.0177 0.66614,0.0602 0.64843,0.1453 0.6307,0.22677 0.59528,0.30472 0.54921,0.37559 0.50315,0.43937 0.43937,0.50315 0.37559,0.54921 0.30473,0.59528 0.22677,0.63071 0.14527,0.64842 0.0602,0.66615 -0.0177,0.66614 -0.1063,0.65551 -0.18426,0.64134 -0.26574,0.61653 -0.34016,0.57402 -0.41103,0.52795 -0.47126,0.47126 -0.52795,0.40748 -0.57401,0.3437 -0.613,0.26221 -0.64133,0.18425 -0.65552,0.1063 -0.66614,0.0213 z"
       id="path4630"
       inkscape:connector-curvature="0"
       sodipodi:nodetypes="ccccccccccccccccccccccccccccccccccccccccccccccccccc" />
    <path
       style="fill:none;stroke:#ff0000"
       d="m 126.39685,1161.8362 1.70787,0.4961 1.63347,0.7051 1.53071,0.9035 1.40669,1.0949 1.25787,1.2579 1.09489,1.4067 0.90354,1.5307 0.70512,1.6335 0.49606,1.7078 0.27992,1.7611 0.0567,1.7787 -0.16653,1.7717 -0.38976,1.7362 -0.60237,1.676 -0.80787,1.5838 -1.00276,1.474 -1.17637,1.3323 -1.33229,1.1764 -1.47401,1.0028 -1.58386,0.8078 -1.67599,0.6024 -1.73622,0.3898 -1.77165,0.1665 -1.77874,-0.057 -1.76102,-0.2798 -1.70788,-0.4961 -1.63346,-0.7051 -1.53071,-0.9035 -1.40669,-1.0949 -1.25788,-1.2579 -1.09488,-1.4067 -0.90354,-1.5307 -0.70512,-1.6335 -0.49606,-1.7078 -0.27993,-1.7611 -0.0567,-1.7787 0.16655,-1.7717 0.38976,-1.7362 0.60236,-1.676 0.80788,-1.5838 1.00275,-1.474 1.17638,-1.3323 1.33228,-1.1764 1.47402,-1.0028 1.58386,-0.8078 1.67598,-0.6024 1.73622,-0.3898 1.77166,-0.1665 1.77874,0.057 z"
       id="path4680"
       inkscape:connector-curvature="0"
       sodipodi:nodetypes="ccccccccccccccccccccccccccccccccccccccccccccccccccc" />
    <path
       style="fill:none;stroke:#ff0000"
       d="m 121.08543,943.05827 -1.73622,-0.38977 -1.67598,-0.60236 -1.58386,-0.80787 -1.47402,-1.00276 -1.33228,-1.17638 -1.17638,-1.33228 -1.00275,-1.47402 -0.80788,-1.58385 -0.60236,-1.67599 -0.38976,-1.73622 -0.16654,-1.77165 0.0567,-1.77874 0.27992,-1.76103 0.49606,-1.70787 0.70512,-1.63346 0.90354,-1.53071 1.09488,-1.4067 1.25788,-1.25787 1.40669,-1.09488 1.53071,-0.90355 1.63346,-0.70511 1.70788,-0.49607 1.76102,-0.27992 1.77874,-0.0567 1.77165,0.16654 1.73622,0.38977 1.67599,0.60236 1.58386,0.80787 1.47401,1.00276 1.33229,1.17638 1.17637,1.33228 1.00276,1.47402 0.80787,1.58386 0.60237,1.67598 0.38976,1.73622 0.16653,1.77166 -0.0567,1.77873 -0.27991,1.76103 -0.49606,1.70787 -0.70512,1.63347 -0.90354,1.53071 -1.09489,1.40669 -1.25787,1.25787 -1.40669,1.09488 -1.53071,0.90355 -1.63347,0.70512 -1.70787,0.49606 -1.76102,0.27992 -1.77874,0.0567 z"
       id="path4830"
       inkscape:connector-curvature="0"
       sodipodi:nodetypes="ccccccccccccccccccccccccccccccccccccccccccccccccccc" />
  </g>
</svg>
