  0
SECTION
  2
BLOCKS
  0
ENDSEC
  0
SECTION
  2
ENTITIES
  0
LINE
  8
0
 10
-41.296
 11
-41.27
 20
-35.003
 21
-34.187
  0
LINE
  8
0
 10
-41.27
 11
-41.142
 20
-34.187
 21
-33.381
  0
LINE
  8
0
 10
-41.142
 11
-40.915
 20
-33.381
 21
-32.598
  0
LINE
  8
0
 10
-40.915
 11
-40.591
 20
-32.598
 21
-31.848
  0
LINE
  8
0
 10
-40.591
 11
-40.175
 20
-31.848
 21
-31.145
  0
LINE
  8
0
 10
-40.175
 11
-39.674
 20
-31.145
 21
-30.5
  0
LINE
  8
0
 10
-39.674
 11
-39.097
 20
-30.5
 21
-29.923
  0
LINE
  8
0
 10
-39.097
 11
-38.453
 20
-29.923
 21
-29.423
  0
LINE
  8
0
 10
-38.453
 11
-37.75
 20
-29.423
 21
-29.007
  0
LINE
  8
0
 10
-37.75
 11
-37
 20
-29.007
 21
-28.683
  0
LINE
  8
0
 10
-37
 11
-36.217
 20
-28.683
 21
-28.456
  0
LINE
  8
0
 10
-36.217
 11
-35.411
 20
-28.456
 21
-28.328
  0
LINE
  8
0
 10
-35.411
 11
-35.365
 20
-28.328
 21
-28.327
  0
LINE
  8
0
 10
-35.365
 11
-35.365
 20
-28.327
 21
-28.32
  0
LINE
  8
0
 10
-35.365
 11
-35.292
 20
-28.32
 21
-28.317
  0
LINE
  8
0
 10
-35.292
 11
-33.977
 20
-28.317
 21
-28.109
  0
LINE
  8
0
 10
-33.977
 11
-32.699
 20
-28.109
 21
-27.738
  0
LINE
  8
0
 10
-32.699
 11
-31.478
 20
-27.738
 21
-27.21
  0
LINE
  8
0
 10
-31.478
 11
-30.332
 20
-27.21
 21
-26.532
  0
LINE
  8
0
 10
-30.332
 11
-29.281
 20
-26.532
 21
-25.715
  0
LINE
  8
0
 10
-29.281
 11
-28.811
 20
-25.715
 21
-25.245
  0
LINE
  8
0
 10
-28.811
 11
-28.796
 20
-25.245
 21
-25.26
  0
LINE
  8
0
 10
-28.796
 11
-20.657
 20
-25.26
 21
-17.121
  0
LINE
  8
0
 10
-20.657
 11
-20.684
 20
-17.121
 21
-17.094
  0
LINE
  8
0
 10
-20.684
 11
-19.826
 20
-17.094
 21
-16.237
  0
LINE
  8
0
 10
-19.826
 11
-18.34
 20
-16.237
 21
-14.32
  0
LINE
  8
0
 10
-18.34
 11
-17.106
 20
-14.32
 21
-12.232
  0
LINE
  8
0
 10
-17.106
 11
-16.142
 20
-12.232
 21
-10.007
  0
LINE
  8
0
 10
-16.142
 11
-15.465
 20
-10.007
 21
-7.677
  0
LINE
  8
0
 10
-15.465
 11
-15.086
 20
-7.677
 21
-5.282
  0
LINE
  8
0
 10
-15.086
 11
-15.03
 20
-5.282
 21
-3.464
  0
LINE
  8
0
 10
-15.03
 11
-15
 20
-3.464
 21
-3.464
  0
LINE
  8
0
 10
-15
 11
-15
 20
-3.464
 21
3.464
  0
LINE
  8
0
 10
-15
 11
-15.03
 20
3.464
 21
3.464
  0
LINE
  8
0
 10
-15.03
 11
-15.086
 20
3.464
 21
5.282
  0
LINE
  8
0
 10
-15.086
 11
-15.465
 20
5.282
 21
7.677
  0
LINE
  8
0
 10
-15.465
 11
-16.142
 20
7.677
 21
10.007
  0
LINE
  8
0
 10
-16.142
 11
-17.106
 20
10.007
 21
12.232
  0
LINE
  8
0
 10
-17.106
 11
-18.34
 20
12.232
 21
14.32
  0
LINE
  8
0
 10
-18.34
 11
-19.826
 20
14.32
 21
16.237
  0
LINE
  8
0
 10
-19.826
 11
-20.684
 20
16.237
 21
17.094
  0
LINE
  8
0
 10
-20.684
 11
-20.657
 20
17.094
 21
17.121
  0
LINE
  8
0
 10
-20.657
 11
-28.796
 20
17.121
 21
25.26
  0
LINE
  8
0
 10
-28.796
 11
-28.811
 20
25.26
 21
25.245
  0
LINE
  8
0
 10
-28.811
 11
-29.281
 20
25.245
 21
25.715
  0
LINE
  8
0
 10
-29.281
 11
-30.332
 20
25.715
 21
26.532
  0
LINE
  8
0
 10
-30.332
 11
-31.478
 20
26.532
 21
27.21
  0
LINE
  8
0
 10
-31.478
 11
-32.699
 20
27.21
 21
27.738
  0
LINE
  8
0
 10
-32.699
 11
-33.977
 20
27.738
 21
28.109
  0
LINE
  8
0
 10
-33.977
 11
-35.292
 20
28.109
 21
28.317
  0
LINE
  8
0
 10
-35.292
 11
-35.365
 20
28.317
 21
28.32
  0
LINE
  8
0
 10
-35.365
 11
-35.365
 20
28.32
 21
28.327
  0
LINE
  8
0
 10
-35.365
 11
-35.411
 20
28.327
 21
28.328
  0
LINE
  8
0
 10
-35.411
 11
-36.217
 20
28.328
 21
28.456
  0
LINE
  8
0
 10
-36.217
 11
-37
 20
28.456
 21
28.683
  0
LINE
  8
0
 10
-37
 11
-37.75
 20
28.683
 21
29.007
  0
LINE
  8
0
 10
-37.75
 11
-38.453
 20
29.007
 21
29.423
  0
LINE
  8
0
 10
-38.453
 11
-39.097
 20
29.423
 21
29.923
  0
LINE
  8
0
 10
-39.097
 11
-39.674
 20
29.923
 21
30.5
  0
LINE
  8
0
 10
-39.674
 11
-40.175
 20
30.5
 21
31.145
  0
LINE
  8
0
 10
-40.175
 11
-40.591
 20
31.145
 21
31.848
  0
LINE
  8
0
 10
-40.591
 11
-40.915
 20
31.848
 21
32.598
  0
LINE
  8
0
 10
-40.915
 11
-41.142
 20
32.598
 21
33.381
  0
LINE
  8
0
 10
-41.142
 11
-41.27
 20
33.381
 21
34.187
  0
LINE
  8
0
 10
-41.27
 11
-41.296
 20
34.187
 21
35.003
  0
LINE
  8
0
 10
-41.296
 11
-41.22
 20
35.003
 21
35.816
  0
LINE
  8
0
 10
-41.22
 11
-41.041
 20
35.816
 21
36.613
  0
LINE
  8
0
 10
-41.041
 11
-40.765
 20
36.613
 21
37.381
  0
LINE
  8
0
 10
-40.765
 11
-40.394
 20
37.381
 21
38.108
  0
LINE
  8
0
 10
-40.394
 11
-39.935
 20
38.108
 21
38.783
  0
LINE
  8
0
 10
-39.935
 11
-39.395
 20
38.783
 21
39.395
  0
LINE
  8
0
 10
-39.395
 11
-38.783
 20
39.395
 21
39.935
  0
LINE
  8
0
 10
-38.783
 11
-38.108
 20
39.935
 21
40.394
  0
LINE
  8
0
 10
-38.108
 11
-37.381
 20
40.394
 21
40.765
  0
LINE
  8
0
 10
-37.381
 11
-36.613
 20
40.765
 21
41.041
  0
LINE
  8
0
 10
-36.613
 11
-35.816
 20
41.041
 21
41.22
  0
LINE
  8
0
 10
-35.816
 11
-35.003
 20
41.22
 21
41.296
  0
LINE
  8
0
 10
-35.003
 11
-34.187
 20
41.296
 21
41.27
  0
LINE
  8
0
 10
-34.187
 11
-33.381
 20
41.27
 21
41.142
  0
LINE
  8
0
 10
-33.381
 11
-32.598
 20
41.142
 21
40.915
  0
LINE
  8
0
 10
-32.598
 11
-31.848
 20
40.915
 21
40.591
  0
LINE
  8
0
 10
-31.848
 11
-31.145
 20
40.591
 21
40.175
  0
LINE
  8
0
 10
-31.145
 11
-30.5
 20
40.175
 21
39.674
  0
LINE
  8
0
 10
-30.5
 11
-29.923
 20
39.674
 21
39.097
  0
LINE
  8
0
 10
-29.923
 11
-29.423
 20
39.097
 21
38.453
  0
LINE
  8
0
 10
-29.423
 11
-29.007
 20
38.453
 21
37.75
  0
LINE
  8
0
 10
-29.007
 11
-28.683
 20
37.75
 21
37
  0
LINE
  8
0
 10
-28.683
 11
-28.456
 20
37
 21
36.217
  0
LINE
  8
0
 10
-28.456
 11
-28.328
 20
36.217
 21
35.411
  0
LINE
  8
0
 10
-28.328
 11
-28.327
 20
35.411
 21
35.365
  0
LINE
  8
0
 10
-28.327
 11
-28.32
 20
35.365
 21
35.365
  0
LINE
  8
0
 10
-28.32
 11
-28.317
 20
35.365
 21
35.292
  0
LINE
  8
0
 10
-28.317
 11
-28.109
 20
35.292
 21
33.977
  0
LINE
  8
0
 10
-28.109
 11
-27.738
 20
33.977
 21
32.699
  0
LINE
  8
0
 10
-27.738
 11
-27.21
 20
32.699
 21
31.478
  0
LINE
  8
0
 10
-27.21
 11
-26.532
 20
31.478
 21
30.332
  0
LINE
  8
0
 10
-26.532
 11
-25.715
 20
30.332
 21
29.281
  0
LINE
  8
0
 10
-25.715
 11
-25.245
 20
29.281
 21
28.811
  0
LINE
  8
0
 10
-25.245
 11
-25.26
 20
28.811
 21
28.796
  0
LINE
  8
0
 10
-25.26
 11
-17.121
 20
28.796
 21
20.657
  0
LINE
  8
0
 10
-17.121
 11
-17.094
 20
20.657
 21
20.684
  0
LINE
  8
0
 10
-17.094
 11
-16.237
 20
20.684
 21
19.826
  0
LINE
  8
0
 10
-16.237
 11
-14.32
 20
19.826
 21
18.34
  0
LINE
  8
0
 10
-14.32
 11
-12.232
 20
18.34
 21
17.106
  0
LINE
  8
0
 10
-12.232
 11
-10.007
 20
17.106
 21
16.142
  0
LINE
  8
0
 10
-10.007
 11
-7.677
 20
16.142
 21
15.465
  0
LINE
  8
0
 10
-7.677
 11
-5.282
 20
15.465
 21
15.086
  0
LINE
  8
0
 10
-5.282
 11
-3.464
 20
15.086
 21
15.03
  0
LINE
  8
0
 10
-3.464
 11
-3.464
 20
15.03
 21
15
  0
LINE
  8
0
 10
-3.464
 11
3.464
 20
15
 21
15
  0
LINE
  8
0
 10
3.464
 11
3.464
 20
15
 21
15.03
  0
LINE
  8
0
 10
3.464
 11
5.282
 20
15.03
 21
15.086
  0
LINE
  8
0
 10
5.282
 11
7.677
 20
15.086
 21
15.465
  0
LINE
  8
0
 10
7.677
 11
10.007
 20
15.465
 21
16.142
  0
LINE
  8
0
 10
10.007
 11
12.232
 20
16.142
 21
17.106
  0
LINE
  8
0
 10
12.232
 11
14.32
 20
17.106
 21
18.34
  0
LINE
  8
0
 10
14.32
 11
16.237
 20
18.34
 21
19.826
  0
LINE
  8
0
 10
16.237
 11
17.094
 20
19.826
 21
20.684
  0
LINE
  8
0
 10
17.094
 11
17.121
 20
20.684
 21
20.657
  0
LINE
  8
0
 10
17.121
 11
25.26
 20
20.657
 21
28.796
  0
LINE
  8
0
 10
25.26
 11
25.245
 20
28.796
 21
28.811
  0
LINE
  8
0
 10
25.245
 11
25.715
 20
28.811
 21
29.281
  0
LINE
  8
0
 10
25.715
 11
26.532
 20
29.281
 21
30.332
  0
LINE
  8
0
 10
26.532
 11
27.21
 20
30.332
 21
31.478
  0
LINE
  8
0
 10
27.21
 11
27.738
 20
31.478
 21
32.699
  0
LINE
  8
0
 10
27.738
 11
28.109
 20
32.699
 21
33.977
  0
LINE
  8
0
 10
28.109
 11
28.317
 20
33.977
 21
35.292
  0
LINE
  8
0
 10
28.317
 11
28.32
 20
35.292
 21
35.365
  0
LINE
  8
0
 10
28.32
 11
28.327
 20
35.365
 21
35.365
  0
LINE
  8
0
 10
28.327
 11
28.328
 20
35.365
 21
35.411
  0
LINE
  8
0
 10
28.328
 11
28.456
 20
35.411
 21
36.217
  0
LINE
  8
0
 10
28.456
 11
28.683
 20
36.217
 21
37
  0
LINE
  8
0
 10
28.683
 11
29.007
 20
37
 21
37.75
  0
LINE
  8
0
 10
29.007
 11
29.423
 20
37.75
 21
38.453
  0
LINE
  8
0
 10
29.423
 11
29.923
 20
38.453
 21
39.097
  0
LINE
  8
0
 10
29.923
 11
30.5
 20
39.097
 21
39.674
  0
LINE
  8
0
 10
30.5
 11
31.145
 20
39.674
 21
40.175
  0
LINE
  8
0
 10
31.145
 11
31.848
 20
40.175
 21
40.591
  0
LINE
  8
0
 10
31.848
 11
32.598
 20
40.591
 21
40.915
  0
LINE
  8
0
 10
32.598
 11
33.381
 20
40.915
 21
41.142
  0
LINE
  8
0
 10
33.381
 11
34.187
 20
41.142
 21
41.27
  0
LINE
  8
0
 10
34.187
 11
35.003
 20
41.27
 21
41.296
  0
LINE
  8
0
 10
35.003
 11
35.816
 20
41.296
 21
41.22
  0
LINE
  8
0
 10
35.816
 11
36.613
 20
41.22
 21
41.041
  0
LINE
  8
0
 10
36.613
 11
37.381
 20
41.041
 21
40.765
  0
LINE
  8
0
 10
37.381
 11
38.108
 20
40.765
 21
40.394
  0
LINE
  8
0
 10
38.108
 11
38.783
 20
40.394
 21
39.935
  0
LINE
  8
0
 10
38.783
 11
39.395
 20
39.935
 21
39.395
  0
LINE
  8
0
 10
39.395
 11
39.935
 20
39.395
 21
38.783
  0
LINE
  8
0
 10
39.935
 11
40.394
 20
38.783
 21
38.108
  0
LINE
  8
0
 10
40.394
 11
40.765
 20
38.108
 21
37.381
  0
LINE
  8
0
 10
40.765
 11
41.041
 20
37.381
 21
36.613
  0
LINE
  8
0
 10
41.041
 11
41.22
 20
36.613
 21
35.816
  0
LINE
  8
0
 10
41.22
 11
41.296
 20
35.816
 21
35.003
  0
LINE
  8
0
 10
41.296
 11
41.27
 20
35.003
 21
34.187
  0
LINE
  8
0
 10
41.27
 11
41.142
 20
34.187
 21
33.381
  0
LINE
  8
0
 10
41.142
 11
40.915
 20
33.381
 21
32.598
  0
LINE
  8
0
 10
40.915
 11
40.591
 20
32.598
 21
31.848
  0
LINE
  8
0
 10
40.591
 11
40.175
 20
31.848
 21
31.145
  0
LINE
  8
0
 10
40.175
 11
39.674
 20
31.145
 21
30.5
  0
LINE
  8
0
 10
39.674
 11
39.097
 20
30.5
 21
29.923
  0
LINE
  8
0
 10
39.097
 11
38.453
 20
29.923
 21
29.423
  0
LINE
  8
0
 10
38.453
 11
37.75
 20
29.423
 21
29.007
  0
LINE
  8
0
 10
37.75
 11
37
 20
29.007
 21
28.683
  0
LINE
  8
0
 10
37
 11
36.217
 20
28.683
 21
28.456
  0
LINE
  8
0
 10
36.217
 11
35.411
 20
28.456
 21
28.328
  0
LINE
  8
0
 10
35.411
 11
35.365
 20
28.328
 21
28.327
  0
LINE
  8
0
 10
35.365
 11
35.365
 20
28.327
 21
28.32
  0
LINE
  8
0
 10
35.365
 11
35.292
 20
28.32
 21
28.317
  0
LINE
  8
0
 10
35.292
 11
33.977
 20
28.317
 21
28.109
  0
LINE
  8
0
 10
33.977
 11
32.699
 20
28.109
 21
27.738
  0
LINE
  8
0
 10
32.699
 11
31.478
 20
27.738
 21
27.21
  0
LINE
  8
0
 10
31.478
 11
30.332
 20
27.21
 21
26.532
  0
LINE
  8
0
 10
30.332
 11
29.281
 20
26.532
 21
25.715
  0
LINE
  8
0
 10
29.281
 11
28.811
 20
25.715
 21
25.245
  0
LINE
  8
0
 10
28.811
 11
28.796
 20
25.245
 21
25.26
  0
LINE
  8
0
 10
28.796
 11
20.657
 20
25.26
 21
17.121
  0
LINE
  8
0
 10
20.657
 11
20.684
 20
17.121
 21
17.094
  0
LINE
  8
0
 10
20.684
 11
19.826
 20
17.094
 21
16.237
  0
LINE
  8
0
 10
19.826
 11
18.34
 20
16.237
 21
14.32
  0
LINE
  8
0
 10
18.34
 11
17.106
 20
14.32
 21
12.232
  0
LINE
  8
0
 10
17.106
 11
16.142
 20
12.232
 21
10.007
  0
LINE
  8
0
 10
16.142
 11
15.465
 20
10.007
 21
7.677
  0
LINE
  8
0
 10
15.465
 11
15.086
 20
7.677
 21
5.282
  0
LINE
  8
0
 10
15.086
 11
15.03
 20
5.282
 21
3.464
  0
LINE
  8
0
 10
15.03
 11
15
 20
3.464
 21
3.464
  0
LINE
  8
0
 10
15
 11
15
 20
3.464
 21
-3.464
  0
LINE
  8
0
 10
15
 11
15.03
 20
-3.464
 21
-3.464
  0
LINE
  8
0
 10
15.03
 11
15.086
 20
-3.464
 21
-5.282
  0
LINE
  8
0
 10
15.086
 11
15.465
 20
-5.282
 21
-7.677
  0
LINE
  8
0
 10
15.465
 11
16.142
 20
-7.677
 21
-10.007
  0
LINE
  8
0
 10
16.142
 11
17.106
 20
-10.007
 21
-12.232
  0
LINE
  8
0
 10
17.106
 11
18.34
 20
-12.232
 21
-14.32
  0
LINE
  8
0
 10
18.34
 11
19.826
 20
-14.32
 21
-16.237
  0
LINE
  8
0
 10
19.826
 11
20.684
 20
-16.237
 21
-17.094
  0
LINE
  8
0
 10
20.684
 11
20.657
 20
-17.094
 21
-17.121
  0
LINE
  8
0
 10
20.657
 11
28.796
 20
-17.121
 21
-25.26
  0
LINE
  8
0
 10
28.796
 11
28.811
 20
-25.26
 21
-25.245
  0
LINE
  8
0
 10
28.811
 11
29.281
 20
-25.245
 21
-25.715
  0
LINE
  8
0
 10
29.281
 11
30.332
 20
-25.715
 21
-26.532
  0
LINE
  8
0
 10
30.332
 11
31.478
 20
-26.532
 21
-27.21
  0
LINE
  8
0
 10
31.478
 11
32.699
 20
-27.21
 21
-27.738
  0
LINE
  8
0
 10
32.699
 11
33.977
 20
-27.738
 21
-28.109
  0
LINE
  8
0
 10
33.977
 11
35.292
 20
-28.109
 21
-28.317
  0
LINE
  8
0
 10
35.292
 11
35.365
 20
-28.317
 21
-28.32
  0
LINE
  8
0
 10
35.365
 11
35.365
 20
-28.32
 21
-28.327
  0
LINE
  8
0
 10
35.365
 11
35.411
 20
-28.327
 21
-28.328
  0
LINE
  8
0
 10
35.411
 11
36.217
 20
-28.328
 21
-28.456
  0
LINE
  8
0
 10
36.217
 11
37
 20
-28.456
 21
-28.683
  0
LINE
  8
0
 10
37
 11
37.75
 20
-28.683
 21
-29.007
  0
LINE
  8
0
 10
37.75
 11
38.453
 20
-29.007
 21
-29.423
  0
LINE
  8
0
 10
38.453
 11
39.097
 20
-29.423
 21
-29.923
  0
LINE
  8
0
 10
39.097
 11
39.674
 20
-29.923
 21
-30.5
  0
LINE
  8
0
 10
39.674
 11
40.175
 20
-30.5
 21
-31.145
  0
LINE
  8
0
 10
40.175
 11
40.591
 20
-31.145
 21
-31.848
  0
LINE
  8
0
 10
40.591
 11
40.915
 20
-31.848
 21
-32.598
  0
LINE
  8
0
 10
40.915
 11
41.142
 20
-32.598
 21
-33.381
  0
LINE
  8
0
 10
41.142
 11
41.27
 20
-33.381
 21
-34.187
  0
LINE
  8
0
 10
41.27
 11
41.296
 20
-34.187
 21
-35.003
  0
LINE
  8
0
 10
41.296
 11
41.22
 20
-35.003
 21
-35.816
  0
LINE
  8
0
 10
41.22
 11
41.041
 20
-35.816
 21
-36.613
  0
LINE
  8
0
 10
41.041
 11
40.765
 20
-36.613
 21
-37.381
  0
LINE
  8
0
 10
40.765
 11
40.394
 20
-37.381
 21
-38.108
  0
LINE
  8
0
 10
40.394
 11
39.935
 20
-38.108
 21
-38.783
  0
LINE
  8
0
 10
39.935
 11
39.395
 20
-38.783
 21
-39.395
  0
LINE
  8
0
 10
39.395
 11
38.783
 20
-39.395
 21
-39.935
  0
LINE
  8
0
 10
38.783
 11
38.108
 20
-39.935
 21
-40.394
  0
LINE
  8
0
 10
38.108
 11
37.381
 20
-40.394
 21
-40.765
  0
LINE
  8
0
 10
37.381
 11
36.613
 20
-40.765
 21
-41.041
  0
LINE
  8
0
 10
36.613
 11
35.816
 20
-41.041
 21
-41.22
  0
LINE
  8
0
 10
35.816
 11
35.003
 20
-41.22
 21
-41.296
  0
LINE
  8
0
 10
35.003
 11
34.187
 20
-41.296
 21
-41.27
  0
LINE
  8
0
 10
34.187
 11
33.381
 20
-41.27
 21
-41.142
  0
LINE
  8
0
 10
33.381
 11
32.598
 20
-41.142
 21
-40.915
  0
LINE
  8
0
 10
32.598
 11
31.848
 20
-40.915
 21
-40.591
  0
LINE
  8
0
 10
31.848
 11
31.145
 20
-40.591
 21
-40.175
  0
LINE
  8
0
 10
31.145
 11
30.5
 20
-40.175
 21
-39.674
  0
LINE
  8
0
 10
30.5
 11
29.923
 20
-39.674
 21
-39.097
  0
LINE
  8
0
 10
29.923
 11
29.423
 20
-39.097
 21
-38.453
  0
LINE
  8
0
 10
29.423
 11
29.007
 20
-38.453
 21
-37.75
  0
LINE
  8
0
 10
29.007
 11
28.683
 20
-37.75
 21
-37
  0
LINE
  8
0
 10
28.683
 11
28.456
 20
-37
 21
-36.217
  0
LINE
  8
0
 10
28.456
 11
28.328
 20
-36.217
 21
-35.411
  0
LINE
  8
0
 10
28.328
 11
28.327
 20
-35.411
 21
-35.365
  0
LINE
  8
0
 10
28.327
 11
28.32
 20
-35.365
 21
-35.365
  0
LINE
  8
0
 10
28.32
 11
28.317
 20
-35.365
 21
-35.292
  0
LINE
  8
0
 10
28.317
 11
28.109
 20
-35.292
 21
-33.977
  0
LINE
  8
0
 10
28.109
 11
27.738
 20
-33.977
 21
-32.699
  0
LINE
  8
0
 10
27.738
 11
27.21
 20
-32.699
 21
-31.478
  0
LINE
  8
0
 10
27.21
 11
26.532
 20
-31.478
 21
-30.332
  0
LINE
  8
0
 10
26.532
 11
25.715
 20
-30.332
 21
-29.281
  0
LINE
  8
0
 10
25.715
 11
25.245
 20
-29.281
 21
-28.811
  0
LINE
  8
0
 10
25.245
 11
25.26
 20
-28.811
 21
-28.796
  0
LINE
  8
0
 10
25.26
 11
17.121
 20
-28.796
 21
-20.657
  0
LINE
  8
0
 10
17.121
 11
17.094
 20
-20.657
 21
-20.684
  0
LINE
  8
0
 10
17.094
 11
16.237
 20
-20.684
 21
-19.826
  0
LINE
  8
0
 10
16.237
 11
14.32
 20
-19.826
 21
-18.34
  0
LINE
  8
0
 10
14.32
 11
12.232
 20
-18.34
 21
-17.106
  0
LINE
  8
0
 10
12.232
 11
10.007
 20
-17.106
 21
-16.142
  0
LINE
  8
0
 10
10.007
 11
7.677
 20
-16.142
 21
-15.465
  0
LINE
  8
0
 10
7.677
 11
5.282
 20
-15.465
 21
-15.086
  0
LINE
  8
0
 10
5.282
 11
3.464
 20
-15.086
 21
-15.03
  0
LINE
  8
0
 10
3.464
 11
3.464
 20
-15.03
 21
-15
  0
LINE
  8
0
 10
3.464
 11
-3.464
 20
-15
 21
-15
  0
LINE
  8
0
 10
-3.464
 11
-3.464
 20
-15
 21
-15.03
  0
LINE
  8
0
 10
-3.464
 11
-5.282
 20
-15.03
 21
-15.086
  0
LINE
  8
0
 10
-5.282
 11
-7.677
 20
-15.086
 21
-15.465
  0
LINE
  8
0
 10
-7.677
 11
-10.007
 20
-15.465
 21
-16.142
  0
LINE
  8
0
 10
-10.007
 11
-12.232
 20
-16.142
 21
-17.106
  0
LINE
  8
0
 10
-12.232
 11
-14.32
 20
-17.106
 21
-18.34
  0
LINE
  8
0
 10
-14.32
 11
-16.237
 20
-18.34
 21
-19.826
  0
LINE
  8
0
 10
-16.237
 11
-17.094
 20
-19.826
 21
-20.684
  0
LINE
  8
0
 10
-17.094
 11
-17.121
 20
-20.684
 21
-20.657
  0
LINE
  8
0
 10
-17.121
 11
-25.26
 20
-20.657
 21
-28.796
  0
LINE
  8
0
 10
-25.26
 11
-25.245
 20
-28.796
 21
-28.811
  0
LINE
  8
0
 10
-25.245
 11
-25.715
 20
-28.811
 21
-29.281
  0
LINE
  8
0
 10
-25.715
 11
-26.532
 20
-29.281
 21
-30.332
  0
LINE
  8
0
 10
-26.532
 11
-27.21
 20
-30.332
 21
-31.478
  0
LINE
  8
0
 10
-27.21
 11
-27.738
 20
-31.478
 21
-32.699
  0
LINE
  8
0
 10
-27.738
 11
-28.109
 20
-32.699
 21
-33.977
  0
LINE
  8
0
 10
-28.109
 11
-28.317
 20
-33.977
 21
-35.292
  0
LINE
  8
0
 10
-28.317
 11
-28.32
 20
-35.292
 21
-35.365
  0
LINE
  8
0
 10
-28.32
 11
-28.327
 20
-35.365
 21
-35.365
  0
LINE
  8
0
 10
-28.327
 11
-28.328
 20
-35.365
 21
-35.411
  0
LINE
  8
0
 10
-28.328
 11
-28.456
 20
-35.411
 21
-36.217
  0
LINE
  8
0
 10
-28.456
 11
-28.683
 20
-36.217
 21
-37
  0
LINE
  8
0
 10
-28.683
 11
-29.007
 20
-37
 21
-37.75
  0
LINE
  8
0
 10
-29.007
 11
-29.423
 20
-37.75
 21
-38.453
  0
LINE
  8
0
 10
-29.423
 11
-29.923
 20
-38.453
 21
-39.097
  0
LINE
  8
0
 10
-29.923
 11
-30.5
 20
-39.097
 21
-39.674
  0
LINE
  8
0
 10
-30.5
 11
-31.145
 20
-39.674
 21
-40.175
  0
LINE
  8
0
 10
-31.145
 11
-31.848
 20
-40.175
 21
-40.591
  0
LINE
  8
0
 10
-31.848
 11
-32.598
 20
-40.591
 21
-40.915
  0
LINE
  8
0
 10
-32.598
 11
-33.381
 20
-40.915
 21
-41.142
  0
LINE
  8
0
 10
-33.381
 11
-34.187
 20
-41.142
 21
-41.27
  0
LINE
  8
0
 10
-34.187
 11
-35.003
 20
-41.27
 21
-41.296
  0
LINE
  8
0
 10
-35.003
 11
-35.816
 20
-41.296
 21
-41.22
  0
LINE
  8
0
 10
-35.816
 11
-36.613
 20
-41.22
 21
-41.041
  0
LINE
  8
0
 10
-36.613
 11
-37.381
 20
-41.041
 21
-40.765
  0
LINE
  8
0
 10
-37.381
 11
-38.108
 20
-40.765
 21
-40.394
  0
LINE
  8
0
 10
-38.108
 11
-38.783
 20
-40.394
 21
-39.935
  0
LINE
  8
0
 10
-38.783
 11
-39.395
 20
-39.935
 21
-39.395
  0
LINE
  8
0
 10
-39.395
 11
-39.935
 20
-39.395
 21
-38.783
  0
LINE
  8
0
 10
-39.935
 11
-40.394
 20
-38.783
 21
-38.108
  0
LINE
  8
0
 10
-40.394
 11
-40.765
 20
-38.108
 21
-37.381
  0
LINE
  8
0
 10
-40.765
 11
-41.041
 20
-37.381
 21
-36.613
  0
LINE
  8
0
 10
-41.041
 11
-41.22
 20
-36.613
 21
-35.816
  0
LINE
  8
0
 10
-41.22
 11
-41.296
 20
-35.816
 21
-35.003
  0
LINE
  8
0
 10
-38.797
 11
-38.781
 20
-34.925
 21
-34.423
  0
LINE
  8
0
 10
-38.781
 11
-38.702
 20
-34.423
 21
-33.926
  0
LINE
  8
0
 10
-38.702
 11
-38.562
 20
-33.926
 21
-33.444
  0
LINE
  8
0
 10
-38.562
 11
-38.363
 20
-33.444
 21
-32.983
  0
LINE
  8
0
 10
-38.363
 11
-38.108
 20
-32.983
 21
-32.551
  0
LINE
  8
0
 10
-38.108
 11
-37.799
 20
-32.551
 21
-32.154
  0
LINE
  8
0
 10
-37.799
 11
-37.444
 20
-32.154
 21
-31.799
  0
LINE
  8
0
 10
-37.444
 11
-37.047
 20
-31.799
 21
-31.49
  0
LINE
  8
0
 10
-37.047
 11
-36.615
 20
-31.49
 21
-31.235
  0
LINE
  8
0
 10
-36.615
 11
-36.154
 20
-31.235
 21
-31.036
  0
LINE
  8
0
 10
-36.154
 11
-35.672
 20
-31.036
 21
-30.896
  0
LINE
  8
0
 10
-35.672
 11
-35.175
 20
-30.896
 21
-30.817
  0
LINE
  8
0
 10
-35.175
 11
-34.673
 20
-30.817
 21
-30.801
  0
LINE
  8
0
 10
-34.673
 11
-34.173
 20
-30.801
 21
-30.848
  0
LINE
  8
0
 10
-34.173
 11
-33.683
 20
-30.848
 21
-30.958
  0
LINE
  8
0
 10
-33.683
 11
-33.21
 20
-30.958
 21
-31.128
  0
LINE
  8
0
 10
-33.21
 11
-32.763
 20
-31.128
 21
-31.356
  0
LINE
  8
0
 10
-32.763
 11
-32.347
 20
-31.356
 21
-31.639
  0
LINE
  8
0
 10
-32.347
 11
-31.971
 20
-31.639
 21
-31.971
  0
LINE
  8
0
 10
-31.971
 11
-31.639
 20
-31.971
 21
-32.347
  0
LINE
  8
0
 10
-31.639
 11
-31.356
 20
-32.347
 21
-32.763
  0
LINE
  8
0
 10
-31.356
 11
-31.128
 20
-32.763
 21
-33.21
  0
LINE
  8
0
 10
-31.128
 11
-30.958
 20
-33.21
 21
-33.683
  0
LINE
  8
0
 10
-30.958
 11
-30.848
 20
-33.683
 21
-34.173
  0
LINE
  8
0
 10
-30.848
 11
-30.801
 20
-34.173
 21
-34.673
  0
LINE
  8
0
 10
-30.801
 11
-30.817
 20
-34.673
 21
-35.175
  0
LINE
  8
0
 10
-30.817
 11
-30.896
 20
-35.175
 21
-35.672
  0
LINE
  8
0
 10
-30.896
 11
-31.036
 20
-35.672
 21
-36.154
  0
LINE
  8
0
 10
-31.036
 11
-31.235
 20
-36.154
 21
-36.615
  0
LINE
  8
0
 10
-31.235
 11
-31.49
 20
-36.615
 21
-37.047
  0
LINE
  8
0
 10
-31.49
 11
-31.799
 20
-37.047
 21
-37.444
  0
LINE
  8
0
 10
-31.799
 11
-32.154
 20
-37.444
 21
-37.799
  0
LINE
  8
0
 10
-32.154
 11
-32.551
 20
-37.799
 21
-38.108
  0
LINE
  8
0
 10
-32.551
 11
-32.983
 20
-38.108
 21
-38.363
  0
LINE
  8
0
 10
-32.983
 11
-33.444
 20
-38.363
 21
-38.562
  0
LINE
  8
0
 10
-33.444
 11
-33.926
 20
-38.562
 21
-38.702
  0
LINE
  8
0
 10
-33.926
 11
-34.423
 20
-38.702
 21
-38.781
  0
LINE
  8
0
 10
-34.423
 11
-34.925
 20
-38.781
 21
-38.797
  0
LINE
  8
0
 10
-34.925
 11
-35.425
 20
-38.797
 21
-38.75
  0
LINE
  8
0
 10
-35.425
 11
-35.915
 20
-38.75
 21
-38.64
  0
LINE
  8
0
 10
-35.915
 11
-36.388
 20
-38.64
 21
-38.47
  0
LINE
  8
0
 10
-36.388
 11
-36.835
 20
-38.47
 21
-38.242
  0
LINE
  8
0
 10
-36.835
 11
-37.251
 20
-38.242
 21
-37.959
  0
LINE
  8
0
 10
-37.251
 11
-37.627
 20
-37.959
 21
-37.627
  0
LINE
  8
0
 10
-37.627
 11
-37.959
 20
-37.627
 21
-37.251
  0
LINE
  8
0
 10
-37.959
 11
-38.242
 20
-37.251
 21
-36.835
  0
LINE
  8
0
 10
-38.242
 11
-38.47
 20
-36.835
 21
-36.388
  0
LINE
  8
0
 10
-38.47
 11
-38.64
 20
-36.388
 21
-35.915
  0
LINE
  8
0
 10
-38.64
 11
-38.75
 20
-35.915
 21
-35.425
  0
LINE
  8
0
 10
-38.75
 11
-38.797
 20
-35.425
 21
-34.925
  0
LINE
  8
0
 10
-38.797
 11
-38.75
 20
34.925
 21
35.425
  0
LINE
  8
0
 10
-38.75
 11
-38.64
 20
35.425
 21
35.915
  0
LINE
  8
0
 10
-38.64
 11
-38.47
 20
35.915
 21
36.388
  0
LINE
  8
0
 10
-38.47
 11
-38.242
 20
36.388
 21
36.835
  0
LINE
  8
0
 10
-38.242
 11
-37.959
 20
36.835
 21
37.251
  0
LINE
  8
0
 10
-37.959
 11
-37.627
 20
37.251
 21
37.627
  0
LINE
  8
0
 10
-37.627
 11
-37.251
 20
37.627
 21
37.959
  0
LINE
  8
0
 10
-37.251
 11
-36.835
 20
37.959
 21
38.242
  0
LINE
  8
0
 10
-36.835
 11
-36.388
 20
38.242
 21
38.47
  0
LINE
  8
0
 10
-36.388
 11
-35.915
 20
38.47
 21
38.64
  0
LINE
  8
0
 10
-35.915
 11
-35.425
 20
38.64
 21
38.75
  0
LINE
  8
0
 10
-35.425
 11
-34.925
 20
38.75
 21
38.797
  0
LINE
  8
0
 10
-34.925
 11
-34.423
 20
38.797
 21
38.781
  0
LINE
  8
0
 10
-34.423
 11
-33.926
 20
38.781
 21
38.702
  0
LINE
  8
0
 10
-33.926
 11
-33.444
 20
38.702
 21
38.562
  0
LINE
  8
0
 10
-33.444
 11
-32.983
 20
38.562
 21
38.363
  0
LINE
  8
0
 10
-32.983
 11
-32.551
 20
38.363
 21
38.108
  0
LINE
  8
0
 10
-32.551
 11
-32.154
 20
38.108
 21
37.799
  0
LINE
  8
0
 10
-32.154
 11
-31.799
 20
37.799
 21
37.444
  0
LINE
  8
0
 10
-31.799
 11
-31.49
 20
37.444
 21
37.047
  0
LINE
  8
0
 10
-31.49
 11
-31.235
 20
37.047
 21
36.615
  0
LINE
  8
0
 10
-31.235
 11
-31.036
 20
36.615
 21
36.154
  0
LINE
  8
0
 10
-31.036
 11
-30.896
 20
36.154
 21
35.672
  0
LINE
  8
0
 10
-30.896
 11
-30.817
 20
35.672
 21
35.175
  0
LINE
  8
0
 10
-30.817
 11
-30.801
 20
35.175
 21
34.673
  0
LINE
  8
0
 10
-30.801
 11
-30.848
 20
34.673
 21
34.173
  0
LINE
  8
0
 10
-30.848
 11
-30.958
 20
34.173
 21
33.683
  0
LINE
  8
0
 10
-30.958
 11
-31.128
 20
33.683
 21
33.21
  0
LINE
  8
0
 10
-31.128
 11
-31.356
 20
33.21
 21
32.763
  0
LINE
  8
0
 10
-31.356
 11
-31.639
 20
32.763
 21
32.347
  0
LINE
  8
0
 10
-31.639
 11
-31.971
 20
32.347
 21
31.971
  0
LINE
  8
0
 10
-31.971
 11
-32.347
 20
31.971
 21
31.639
  0
LINE
  8
0
 10
-32.347
 11
-32.763
 20
31.639
 21
31.356
  0
LINE
  8
0
 10
-32.763
 11
-33.21
 20
31.356
 21
31.128
  0
LINE
  8
0
 10
-33.21
 11
-33.683
 20
31.128
 21
30.958
  0
LINE
  8
0
 10
-33.683
 11
-34.173
 20
30.958
 21
30.848
  0
LINE
  8
0
 10
-34.173
 11
-34.673
 20
30.848
 21
30.801
  0
LINE
  8
0
 10
-34.673
 11
-35.175
 20
30.801
 21
30.817
  0
LINE
  8
0
 10
-35.175
 11
-35.672
 20
30.817
 21
30.896
  0
LINE
  8
0
 10
-35.672
 11
-36.154
 20
30.896
 21
31.036
  0
LINE
  8
0
 10
-36.154
 11
-36.615
 20
31.036
 21
31.235
  0
LINE
  8
0
 10
-36.615
 11
-37.047
 20
31.235
 21
31.49
  0
LINE
  8
0
 10
-37.047
 11
-37.444
 20
31.49
 21
31.799
  0
LINE
  8
0
 10
-37.444
 11
-37.799
 20
31.799
 21
32.154
  0
LINE
  8
0
 10
-37.799
 11
-38.108
 20
32.154
 21
32.551
  0
LINE
  8
0
 10
-38.108
 11
-38.363
 20
32.551
 21
32.983
  0
LINE
  8
0
 10
-38.363
 11
-38.562
 20
32.983
 21
33.444
  0
LINE
  8
0
 10
-38.562
 11
-38.702
 20
33.444
 21
33.926
  0
LINE
  8
0
 10
-38.702
 11
-38.781
 20
33.926
 21
34.423
  0
LINE
  8
0
 10
-38.781
 11
-38.797
 20
34.423
 21
34.925
  0
LINE
  8
0
 10
-31.348
 11
-31.343
 20
-29.896
 21
-29.708
  0
LINE
  8
0
 10
-31.343
 11
-31.313
 20
-29.708
 21
-29.523
  0
LINE
  8
0
 10
-31.313
 11
-31.261
 20
-29.523
 21
-29.342
  0
LINE
  8
0
 10
-31.261
 11
-31.186
 20
-29.342
 21
-29.168
  0
LINE
  8
0
 10
-31.186
 11
-31.09
 20
-29.168
 21
-29.006
  0
LINE
  8
0
 10
-31.09
 11
-30.974
 20
-29.006
 21
-28.857
  0
LINE
  8
0
 10
-30.974
 11
-30.841
 20
-28.857
 21
-28.724
  0
LINE
  8
0
 10
-30.841
 11
-30.692
 20
-28.724
 21
-28.609
  0
LINE
  8
0
 10
-30.692
 11
-30.53
 20
-28.609
 21
-28.512
  0
LINE
  8
0
 10
-30.53
 11
-30.357
 20
-28.512
 21
-28.438
  0
LINE
  8
0
 10
-30.357
 11
-30.176
 20
-28.438
 21
-28.386
  0
LINE
  8
0
 10
-30.176
 11
-29.991
 20
-28.386
 21
-28.356
  0
LINE
  8
0
 10
-29.991
 11
-29.803
 20
-28.356
 21
-28.35
  0
LINE
  8
0
 10
-29.803
 11
-29.614
 20
-28.35
 21
-28.367
  0
LINE
  8
0
 10
-29.614
 11
-29.431
 20
-28.367
 21
-28.409
  0
LINE
  8
0
 10
-29.431
 11
-29.253
 20
-28.409
 21
-28.473
  0
LINE
  8
0
 10
-29.253
 11
-29.086
 20
-28.473
 21
-28.558
  0
LINE
  8
0
 10
-29.086
 11
-28.93
 20
-28.558
 21
-28.664
  0
LINE
  8
0
 10
-28.93
 11
-28.789
 20
-28.664
 21
-28.789
  0
LINE
  8
0
 10
-28.789
 11
-28.664
 20
-28.789
 21
-28.93
  0
LINE
  8
0
 10
-28.664
 11
-28.558
 20
-28.93
 21
-29.086
  0
LINE
  8
0
 10
-28.558
 11
-28.473
 20
-29.086
 21
-29.253
  0
LINE
  8
0
 10
-28.473
 11
-28.409
 20
-29.253
 21
-29.431
  0
LINE
  8
0
 10
-28.409
 11
-28.367
 20
-29.431
 21
-29.614
  0
LINE
  8
0
 10
-28.367
 11
-28.35
 20
-29.614
 21
-29.803
  0
LINE
  8
0
 10
-28.35
 11
-28.356
 20
-29.803
 21
-29.991
  0
LINE
  8
0
 10
-28.356
 11
-28.386
 20
-29.991
 21
-30.176
  0
LINE
  8
0
 10
-28.386
 11
-28.438
 20
-30.176
 21
-30.357
  0
LINE
  8
0
 10
-28.438
 11
-28.512
 20
-30.357
 21
-30.53
  0
LINE
  8
0
 10
-28.512
 11
-28.609
 20
-30.53
 21
-30.692
  0
LINE
  8
0
 10
-28.609
 11
-28.724
 20
-30.692
 21
-30.841
  0
LINE
  8
0
 10
-28.724
 11
-28.857
 20
-30.841
 21
-30.974
  0
LINE
  8
0
 10
-28.857
 11
-29.006
 20
-30.974
 21
-31.09
  0
LINE
  8
0
 10
-29.006
 11
-29.168
 20
-31.09
 21
-31.186
  0
LINE
  8
0
 10
-29.168
 11
-29.342
 20
-31.186
 21
-31.261
  0
LINE
  8
0
 10
-29.342
 11
-29.523
 20
-31.261
 21
-31.313
  0
LINE
  8
0
 10
-29.523
 11
-29.708
 20
-31.313
 21
-31.343
  0
LINE
  8
0
 10
-29.708
 11
-29.896
 20
-31.343
 21
-31.348
  0
LINE
  8
0
 10
-29.896
 11
-30.084
 20
-31.348
 21
-31.331
  0
LINE
  8
0
 10
-30.084
 11
-30.267
 20
-31.331
 21
-31.29
  0
LINE
  8
0
 10
-30.267
 11
-30.445
 20
-31.29
 21
-31.226
  0
LINE
  8
0
 10
-30.445
 11
-30.613
 20
-31.226
 21
-31.14
  0
LINE
  8
0
 10
-30.613
 11
-30.768
 20
-31.14
 21
-31.034
  0
LINE
  8
0
 10
-30.768
 11
-30.91
 20
-31.034
 21
-30.91
  0
LINE
  8
0
 10
-30.91
 11
-31.034
 20
-30.91
 21
-30.768
  0
LINE
  8
0
 10
-31.034
 11
-31.14
 20
-30.768
 21
-30.613
  0
LINE
  8
0
 10
-31.14
 11
-31.226
 20
-30.613
 21
-30.445
  0
LINE
  8
0
 10
-31.226
 11
-31.29
 20
-30.445
 21
-30.267
  0
LINE
  8
0
 10
-31.29
 11
-31.331
 20
-30.267
 21
-30.084
  0
LINE
  8
0
 10
-31.331
 11
-31.348
 20
-30.084
 21
-29.896
  0
LINE
  8
0
 10
-31.348
 11
-31.331
 20
29.896
 21
30.084
  0
LINE
  8
0
 10
-31.331
 11
-31.29
 20
30.084
 21
30.267
  0
LINE
  8
0
 10
-31.29
 11
-31.226
 20
30.267
 21
30.445
  0
LINE
  8
0
 10
-31.226
 11
-31.14
 20
30.445
 21
30.613
  0
LINE
  8
0
 10
-31.14
 11
-31.034
 20
30.613
 21
30.768
  0
LINE
  8
0
 10
-31.034
 11
-30.91
 20
30.768
 21
30.91
  0
LINE
  8
0
 10
-30.91
 11
-30.768
 20
30.91
 21
31.034
  0
LINE
  8
0
 10
-30.768
 11
-30.613
 20
31.034
 21
31.14
  0
LINE
  8
0
 10
-30.613
 11
-30.445
 20
31.14
 21
31.226
  0
LINE
  8
0
 10
-30.445
 11
-30.267
 20
31.226
 21
31.29
  0
LINE
  8
0
 10
-30.267
 11
-30.084
 20
31.29
 21
31.331
  0
LINE
  8
0
 10
-30.084
 11
-29.896
 20
31.331
 21
31.348
  0
LINE
  8
0
 10
-29.896
 11
-29.708
 20
31.348
 21
31.343
  0
LINE
  8
0
 10
-29.708
 11
-29.523
 20
31.343
 21
31.313
  0
LINE
  8
0
 10
-29.523
 11
-29.342
 20
31.313
 21
31.261
  0
LINE
  8
0
 10
-29.342
 11
-29.168
 20
31.261
 21
31.186
  0
LINE
  8
0
 10
-29.168
 11
-29.006
 20
31.186
 21
31.09
  0
LINE
  8
0
 10
-29.006
 11
-28.857
 20
31.09
 21
30.974
  0
LINE
  8
0
 10
-28.857
 11
-28.724
 20
30.974
 21
30.841
  0
LINE
  8
0
 10
-28.724
 11
-28.609
 20
30.841
 21
30.692
  0
LINE
  8
0
 10
-28.609
 11
-28.512
 20
30.692
 21
30.53
  0
LINE
  8
0
 10
-28.512
 11
-28.438
 20
30.53
 21
30.357
  0
LINE
  8
0
 10
-28.438
 11
-28.386
 20
30.357
 21
30.176
  0
LINE
  8
0
 10
-28.386
 11
-28.356
 20
30.176
 21
29.991
  0
LINE
  8
0
 10
-28.356
 11
-28.35
 20
29.991
 21
29.803
  0
LINE
  8
0
 10
-28.35
 11
-28.367
 20
29.803
 21
29.614
  0
LINE
  8
0
 10
-28.367
 11
-28.409
 20
29.614
 21
29.431
  0
LINE
  8
0
 10
-28.409
 11
-28.473
 20
29.431
 21
29.253
  0
LINE
  8
0
 10
-28.473
 11
-28.558
 20
29.253
 21
29.086
  0
LINE
  8
0
 10
-28.558
 11
-28.664
 20
29.086
 21
28.93
  0
LINE
  8
0
 10
-28.664
 11
-28.789
 20
28.93
 21
28.789
  0
LINE
  8
0
 10
-28.789
 11
-28.93
 20
28.789
 21
28.664
  0
LINE
  8
0
 10
-28.93
 11
-29.086
 20
28.664
 21
28.558
  0
LINE
  8
0
 10
-29.086
 11
-29.253
 20
28.558
 21
28.473
  0
LINE
  8
0
 10
-29.253
 11
-29.431
 20
28.473
 21
28.409
  0
LINE
  8
0
 10
-29.431
 11
-29.614
 20
28.409
 21
28.367
  0
LINE
  8
0
 10
-29.614
 11
-29.803
 20
28.367
 21
28.35
  0
LINE
  8
0
 10
-29.803
 11
-29.991
 20
28.35
 21
28.356
  0
LINE
  8
0
 10
-29.991
 11
-30.176
 20
28.356
 21
28.386
  0
LINE
  8
0
 10
-30.176
 11
-30.357
 20
28.386
 21
28.438
  0
LINE
  8
0
 10
-30.357
 11
-30.53
 20
28.438
 21
28.512
  0
LINE
  8
0
 10
-30.53
 11
-30.692
 20
28.512
 21
28.609
  0
LINE
  8
0
 10
-30.692
 11
-30.841
 20
28.609
 21
28.724
  0
LINE
  8
0
 10
-30.841
 11
-30.974
 20
28.724
 21
28.857
  0
LINE
  8
0
 10
-30.974
 11
-31.09
 20
28.857
 21
29.006
  0
LINE
  8
0
 10
-31.09
 11
-31.186
 20
29.006
 21
29.168
  0
LINE
  8
0
 10
-31.186
 11
-31.261
 20
29.168
 21
29.342
  0
LINE
  8
0
 10
-31.261
 11
-31.313
 20
29.342
 21
29.523
  0
LINE
  8
0
 10
-31.313
 11
-31.343
 20
29.523
 21
29.708
  0
LINE
  8
0
 10
-31.343
 11
-31.348
 20
29.708
 21
29.896
  0
LINE
  8
0
 10
-10.75
 11
-10.75
 20
-8.75
 21
-3.25
  0
LINE
  8
0
 10
-10.75
 11
-10.734
 20
-3.25
 21
-2.999
  0
LINE
  8
0
 10
-10.734
 11
-10.687
 20
-2.999
 21
-2.753
  0
LINE
  8
0
 10
-10.687
 11
-10.61
 20
-2.753
 21
-2.514
  0
LINE
  8
0
 10
-10.61
 11
-10.503
 20
-2.514
 21
-2.286
  0
LINE
  8
0
 10
-10.503
 11
-10.368
 20
-2.286
 21
-2.074
  0
LINE
  8
0
 10
-10.368
 11
-10.208
 20
-2.074
 21
-1.881
  0
LINE
  8
0
 10
-10.208
 11
-10.025
 20
-1.881
 21
-1.709
  0
LINE
  8
0
 10
-10.025
 11
-9.822
 20
-1.709
 21
-1.561
  0
LINE
  8
0
 10
-9.822
 11
-9.602
 20
-1.561
 21
-1.44
  0
LINE
  8
0
 10
-9.602
 11
-9.368
 20
-1.44
 21
-1.348
  0
LINE
  8
0
 10
-9.368
 11
-9.125
 20
-1.348
 21
-1.285
  0
LINE
  8
0
 10
-9.125
 11
-8.876
 20
-1.285
 21
-1.254
  0
LINE
  8
0
 10
-8.876
 11
-3.124
 20
-1.254
 21
-1.254
  0
LINE
  8
0
 10
-3.124
 11
-2.875
 20
-1.254
 21
-1.285
  0
LINE
  8
0
 10
-2.875
 11
-2.632
 20
-1.285
 21
-1.348
  0
LINE
  8
0
 10
-2.632
 11
-2.398
 20
-1.348
 21
-1.44
  0
LINE
  8
0
 10
-2.398
 11
-2.178
 20
-1.44
 21
-1.561
  0
LINE
  8
0
 10
-2.178
 11
-1.975
 20
-1.561
 21
-1.709
  0
LINE
  8
0
 10
-1.975
 11
-1.792
 20
-1.709
 21
-1.881
  0
LINE
  8
0
 10
-1.792
 11
-1.632
 20
-1.881
 21
-2.074
  0
LINE
  8
0
 10
-1.632
 11
-1.497
 20
-2.074
 21
-2.286
  0
LINE
  8
0
 10
-1.497
 11
-1.39
 20
-2.286
 21
-2.514
  0
LINE
  8
0
 10
-1.39
 11
-1.313
 20
-2.514
 21
-2.753
  0
LINE
  8
0
 10
-1.313
 11
-1.266
 20
-2.753
 21
-2.999
  0
LINE
  8
0
 10
-1.266
 11
-1.25
 20
-2.999
 21
-3.25
  0
LINE
  8
0
 10
-1.25
 11
-1.25
 20
-3.25
 21
-8.75
  0
LINE
  8
0
 10
-1.25
 11
-1.266
 20
-8.75
 21
-9.001
  0
LINE
  8
0
 10
-1.266
 11
-1.313
 20
-9.001
 21
-9.247
  0
LINE
  8
0
 10
-1.313
 11
-1.39
 20
-9.247
 21
-9.486
  0
LINE
  8
0
 10
-1.39
 11
-1.497
 20
-9.486
 21
-9.714
  0
LINE
  8
0
 10
-1.497
 11
-1.632
 20
-9.714
 21
-9.926
  0
LINE
  8
0
 10
-1.632
 11
-1.792
 20
-9.926
 21
-10.119
  0
LINE
  8
0
 10
-1.792
 11
-1.975
 20
-10.119
 21
-10.291
  0
LINE
  8
0
 10
-1.975
 11
-2.178
 20
-10.291
 21
-10.439
  0
LINE
  8
0
 10
-2.178
 11
-2.398
 20
-10.439
 21
-10.56
  0
LINE
  8
0
 10
-2.398
 11
-2.632
 20
-10.56
 21
-10.652
  0
LINE
  8
0
 10
-2.632
 11
-2.875
 20
-10.652
 21
-10.715
  0
LINE
  8
0
 10
-2.875
 11
-3.124
 20
-10.715
 21
-10.746
  0
LINE
  8
0
 10
-3.124
 11
-8.876
 20
-10.746
 21
-10.746
  0
LINE
  8
0
 10
-8.876
 11
-9.125
 20
-10.746
 21
-10.715
  0
LINE
  8
0
 10
-9.125
 11
-9.368
 20
-10.715
 21
-10.652
  0
LINE
  8
0
 10
-9.368
 11
-9.602
 20
-10.652
 21
-10.56
  0
LINE
  8
0
 10
-9.602
 11
-9.822
 20
-10.56
 21
-10.439
  0
LINE
  8
0
 10
-9.822
 11
-10.025
 20
-10.439
 21
-10.291
  0
LINE
  8
0
 10
-10.025
 11
-10.208
 20
-10.291
 21
-10.119
  0
LINE
  8
0
 10
-10.208
 11
-10.368
 20
-10.119
 21
-9.926
  0
LINE
  8
0
 10
-10.368
 11
-10.503
 20
-9.926
 21
-9.714
  0
LINE
  8
0
 10
-10.503
 11
-10.61
 20
-9.714
 21
-9.486
  0
LINE
  8
0
 10
-10.61
 11
-10.687
 20
-9.486
 21
-9.247
  0
LINE
  8
0
 10
-10.687
 11
-10.734
 20
-9.247
 21
-9.001
  0
LINE
  8
0
 10
-10.734
 11
-10.75
 20
-9.001
 21
-8.75
  0
LINE
  8
0
 10
-10.75
 11
-10.75
 20
3.25
 21
8.75
  0
LINE
  8
0
 10
-10.75
 11
-10.734
 20
8.75
 21
9.001
  0
LINE
  8
0
 10
-10.734
 11
-10.687
 20
9.001
 21
9.247
  0
LINE
  8
0
 10
-10.687
 11
-10.61
 20
9.247
 21
9.486
  0
LINE
  8
0
 10
-10.61
 11
-10.503
 20
9.486
 21
9.714
  0
LINE
  8
0
 10
-10.503
 11
-10.368
 20
9.714
 21
9.926
  0
LINE
  8
0
 10
-10.368
 11
-10.208
 20
9.926
 21
10.119
  0
LINE
  8
0
 10
-10.208
 11
-10.025
 20
10.119
 21
10.291
  0
LINE
  8
0
 10
-10.025
 11
-9.822
 20
10.291
 21
10.439
  0
LINE
  8
0
 10
-9.822
 11
-9.602
 20
10.439
 21
10.56
  0
LINE
  8
0
 10
-9.602
 11
-9.368
 20
10.56
 21
10.652
  0
LINE
  8
0
 10
-9.368
 11
-9.125
 20
10.652
 21
10.715
  0
LINE
  8
0
 10
-9.125
 11
-8.876
 20
10.715
 21
10.746
  0
LINE
  8
0
 10
-8.876
 11
-3.124
 20
10.746
 21
10.746
  0
LINE
  8
0
 10
-3.124
 11
-2.875
 20
10.746
 21
10.715
  0
LINE
  8
0
 10
-2.875
 11
-2.632
 20
10.715
 21
10.652
  0
LINE
  8
0
 10
-2.632
 11
-2.398
 20
10.652
 21
10.56
  0
LINE
  8
0
 10
-2.398
 11
-2.178
 20
10.56
 21
10.439
  0
LINE
  8
0
 10
-2.178
 11
-1.975
 20
10.439
 21
10.291
  0
LINE
  8
0
 10
-1.975
 11
-1.792
 20
10.291
 21
10.119
  0
LINE
  8
0
 10
-1.792
 11
-1.632
 20
10.119
 21
9.926
  0
LINE
  8
0
 10
-1.632
 11
-1.497
 20
9.926
 21
9.714
  0
LINE
  8
0
 10
-1.497
 11
-1.39
 20
9.714
 21
9.486
  0
LINE
  8
0
 10
-1.39
 11
-1.313
 20
9.486
 21
9.247
  0
LINE
  8
0
 10
-1.313
 11
-1.266
 20
9.247
 21
9.001
  0
LINE
  8
0
 10
-1.266
 11
-1.25
 20
9.001
 21
8.75
  0
LINE
  8
0
 10
-1.25
 11
-1.25
 20
8.75
 21
3.25
  0
LINE
  8
0
 10
-1.25
 11
-1.266
 20
3.25
 21
2.999
  0
LINE
  8
0
 10
-1.266
 11
-1.313
 20
2.999
 21
2.753
  0
LINE
  8
0
 10
-1.313
 11
-1.39
 20
2.753
 21
2.514
  0
LINE
  8
0
 10
-1.39
 11
-1.497
 20
2.514
 21
2.286
  0
LINE
  8
0
 10
-1.497
 11
-1.632
 20
2.286
 21
2.074
  0
LINE
  8
0
 10
-1.632
 11
-1.792
 20
2.074
 21
1.881
  0
LINE
  8
0
 10
-1.792
 11
-1.975
 20
1.881
 21
1.709
  0
LINE
  8
0
 10
-1.975
 11
-2.178
 20
1.709
 21
1.561
  0
LINE
  8
0
 10
-2.178
 11
-2.398
 20
1.561
 21
1.44
  0
LINE
  8
0
 10
-2.398
 11
-2.632
 20
1.44
 21
1.348
  0
LINE
  8
0
 10
-2.632
 11
-2.875
 20
1.348
 21
1.285
  0
LINE
  8
0
 10
-2.875
 11
-3.124
 20
1.285
 21
1.254
  0
LINE
  8
0
 10
-3.124
 11
-8.876
 20
1.254
 21
1.254
  0
LINE
  8
0
 10
-8.876
 11
-9.125
 20
1.254
 21
1.285
  0
LINE
  8
0
 10
-9.125
 11
-9.368
 20
1.285
 21
1.348
  0
LINE
  8
0
 10
-9.368
 11
-9.602
 20
1.348
 21
1.44
  0
LINE
  8
0
 10
-9.602
 11
-9.822
 20
1.44
 21
1.561
  0
LINE
  8
0
 10
-9.822
 11
-10.025
 20
1.561
 21
1.709
  0
LINE
  8
0
 10
-10.025
 11
-10.208
 20
1.709
 21
1.881
  0
LINE
  8
0
 10
-10.208
 11
-10.368
 20
1.881
 21
2.074
  0
LINE
  8
0
 10
-10.368
 11
-10.503
 20
2.074
 21
2.286
  0
LINE
  8
0
 10
-10.503
 11
-10.61
 20
2.286
 21
2.514
  0
LINE
  8
0
 10
-10.61
 11
-10.687
 20
2.514
 21
2.753
  0
LINE
  8
0
 10
-10.687
 11
-10.734
 20
2.753
 21
2.999
  0
LINE
  8
0
 10
-10.734
 11
-10.75
 20
2.999
 21
3.25
  0
LINE
  8
0
 10
1.25
 11
1.25
 20
-8.75
 21
-3.25
  0
LINE
  8
0
 10
1.25
 11
1.266
 20
-3.25
 21
-2.999
  0
LINE
  8
0
 10
1.266
 11
1.313
 20
-2.999
 21
-2.753
  0
LINE
  8
0
 10
1.313
 11
1.39
 20
-2.753
 21
-2.514
  0
LINE
  8
0
 10
1.39
 11
1.497
 20
-2.514
 21
-2.286
  0
LINE
  8
0
 10
1.497
 11
1.632
 20
-2.286
 21
-2.074
  0
LINE
  8
0
 10
1.632
 11
1.792
 20
-2.074
 21
-1.881
  0
LINE
  8
0
 10
1.792
 11
1.975
 20
-1.881
 21
-1.709
  0
LINE
  8
0
 10
1.975
 11
2.178
 20
-1.709
 21
-1.561
  0
LINE
  8
0
 10
2.178
 11
2.398
 20
-1.561
 21
-1.44
  0
LINE
  8
0
 10
2.398
 11
2.632
 20
-1.44
 21
-1.348
  0
LINE
  8
0
 10
2.632
 11
2.875
 20
-1.348
 21
-1.285
  0
LINE
  8
0
 10
2.875
 11
3.124
 20
-1.285
 21
-1.254
  0
LINE
  8
0
 10
3.124
 11
8.876
 20
-1.254
 21
-1.254
  0
LINE
  8
0
 10
8.876
 11
9.125
 20
-1.254
 21
-1.285
  0
LINE
  8
0
 10
9.125
 11
9.368
 20
-1.285
 21
-1.348
  0
LINE
  8
0
 10
9.368
 11
9.602
 20
-1.348
 21
-1.44
  0
LINE
  8
0
 10
9.602
 11
9.822
 20
-1.44
 21
-1.561
  0
LINE
  8
0
 10
9.822
 11
10.025
 20
-1.561
 21
-1.709
  0
LINE
  8
0
 10
10.025
 11
10.208
 20
-1.709
 21
-1.881
  0
LINE
  8
0
 10
10.208
 11
10.368
 20
-1.881
 21
-2.074
  0
LINE
  8
0
 10
10.368
 11
10.503
 20
-2.074
 21
-2.286
  0
LINE
  8
0
 10
10.503
 11
10.61
 20
-2.286
 21
-2.514
  0
LINE
  8
0
 10
10.61
 11
10.687
 20
-2.514
 21
-2.753
  0
LINE
  8
0
 10
10.687
 11
10.734
 20
-2.753
 21
-2.999
  0
LINE
  8
0
 10
10.734
 11
10.75
 20
-2.999
 21
-3.25
  0
LINE
  8
0
 10
10.75
 11
10.75
 20
-3.25
 21
-8.75
  0
LINE
  8
0
 10
10.75
 11
10.734
 20
-8.75
 21
-9.001
  0
LINE
  8
0
 10
10.734
 11
10.687
 20
-9.001
 21
-9.247
  0
LINE
  8
0
 10
10.687
 11
10.61
 20
-9.247
 21
-9.486
  0
LINE
  8
0
 10
10.61
 11
10.503
 20
-9.486
 21
-9.714
  0
LINE
  8
0
 10
10.503
 11
10.368
 20
-9.714
 21
-9.926
  0
LINE
  8
0
 10
10.368
 11
10.208
 20
-9.926
 21
-10.119
  0
LINE
  8
0
 10
10.208
 11
10.025
 20
-10.119
 21
-10.291
  0
LINE
  8
0
 10
10.025
 11
9.822
 20
-10.291
 21
-10.439
  0
LINE
  8
0
 10
9.822
 11
9.602
 20
-10.439
 21
-10.56
  0
LINE
  8
0
 10
9.602
 11
9.368
 20
-10.56
 21
-10.652
  0
LINE
  8
0
 10
9.368
 11
9.125
 20
-10.652
 21
-10.715
  0
LINE
  8
0
 10
9.125
 11
8.876
 20
-10.715
 21
-10.746
  0
LINE
  8
0
 10
8.876
 11
3.124
 20
-10.746
 21
-10.746
  0
LINE
  8
0
 10
3.124
 11
2.875
 20
-10.746
 21
-10.715
  0
LINE
  8
0
 10
2.875
 11
2.632
 20
-10.715
 21
-10.652
  0
LINE
  8
0
 10
2.632
 11
2.398
 20
-10.652
 21
-10.56
  0
LINE
  8
0
 10
2.398
 11
2.178
 20
-10.56
 21
-10.439
  0
LINE
  8
0
 10
2.178
 11
1.975
 20
-10.439
 21
-10.291
  0
LINE
  8
0
 10
1.975
 11
1.792
 20
-10.291
 21
-10.119
  0
LINE
  8
0
 10
1.792
 11
1.632
 20
-10.119
 21
-9.926
  0
LINE
  8
0
 10
1.632
 11
1.497
 20
-9.926
 21
-9.714
  0
LINE
  8
0
 10
1.497
 11
1.39
 20
-9.714
 21
-9.486
  0
LINE
  8
0
 10
1.39
 11
1.313
 20
-9.486
 21
-9.247
  0
LINE
  8
0
 10
1.313
 11
1.266
 20
-9.247
 21
-9.001
  0
LINE
  8
0
 10
1.266
 11
1.25
 20
-9.001
 21
-8.75
  0
LINE
  8
0
 10
1.25
 11
1.25
 20
3.25
 21
8.75
  0
LINE
  8
0
 10
1.25
 11
1.266
 20
8.75
 21
9.001
  0
LINE
  8
0
 10
1.266
 11
1.313
 20
9.001
 21
9.247
  0
LINE
  8
0
 10
1.313
 11
1.39
 20
9.247
 21
9.486
  0
LINE
  8
0
 10
1.39
 11
1.497
 20
9.486
 21
9.714
  0
LINE
  8
0
 10
1.497
 11
1.632
 20
9.714
 21
9.926
  0
LINE
  8
0
 10
1.632
 11
1.792
 20
9.926
 21
10.119
  0
LINE
  8
0
 10
1.792
 11
1.975
 20
10.119
 21
10.291
  0
LINE
  8
0
 10
1.975
 11
2.178
 20
10.291
 21
10.439
  0
LINE
  8
0
 10
2.178
 11
2.398
 20
10.439
 21
10.56
  0
LINE
  8
0
 10
2.398
 11
2.632
 20
10.56
 21
10.652
  0
LINE
  8
0
 10
2.632
 11
2.875
 20
10.652
 21
10.715
  0
LINE
  8
0
 10
2.875
 11
3.124
 20
10.715
 21
10.746
  0
LINE
  8
0
 10
3.124
 11
8.876
 20
10.746
 21
10.746
  0
LINE
  8
0
 10
8.876
 11
9.125
 20
10.746
 21
10.715
  0
LINE
  8
0
 10
9.125
 11
9.368
 20
10.715
 21
10.652
  0
LINE
  8
0
 10
9.368
 11
9.602
 20
10.652
 21
10.56
  0
LINE
  8
0
 10
9.602
 11
9.822
 20
10.56
 21
10.439
  0
LINE
  8
0
 10
9.822
 11
10.025
 20
10.439
 21
10.291
  0
LINE
  8
0
 10
10.025
 11
10.208
 20
10.291
 21
10.119
  0
LINE
  8
0
 10
10.208
 11
10.368
 20
10.119
 21
9.926
  0
LINE
  8
0
 10
10.368
 11
10.503
 20
9.926
 21
9.714
  0
LINE
  8
0
 10
10.503
 11
10.61
 20
9.714
 21
9.486
  0
LINE
  8
0
 10
10.61
 11
10.687
 20
9.486
 21
9.247
  0
LINE
  8
0
 10
10.687
 11
10.734
 20
9.247
 21
9.001
  0
LINE
  8
0
 10
10.734
 11
10.75
 20
9.001
 21
8.75
  0
LINE
  8
0
 10
10.75
 11
10.75
 20
8.75
 21
3.25
  0
LINE
  8
0
 10
10.75
 11
10.734
 20
3.25
 21
2.999
  0
LINE
  8
0
 10
10.734
 11
10.687
 20
2.999
 21
2.753
  0
LINE
  8
0
 10
10.687
 11
10.61
 20
2.753
 21
2.514
  0
LINE
  8
0
 10
10.61
 11
10.503
 20
2.514
 21
2.286
  0
LINE
  8
0
 10
10.503
 11
10.368
 20
2.286
 21
2.074
  0
LINE
  8
0
 10
10.368
 11
10.208
 20
2.074
 21
1.881
  0
LINE
  8
0
 10
10.208
 11
10.025
 20
1.881
 21
1.709
  0
LINE
  8
0
 10
10.025
 11
9.822
 20
1.709
 21
1.561
  0
LINE
  8
0
 10
9.822
 11
9.602
 20
1.561
 21
1.44
  0
LINE
  8
0
 10
9.602
 11
9.368
 20
1.44
 21
1.348
  0
LINE
  8
0
 10
9.368
 11
9.125
 20
1.348
 21
1.285
  0
LINE
  8
0
 10
9.125
 11
8.876
 20
1.285
 21
1.254
  0
LINE
  8
0
 10
8.876
 11
3.124
 20
1.254
 21
1.254
  0
LINE
  8
0
 10
3.124
 11
2.875
 20
1.254
 21
1.285
  0
LINE
  8
0
 10
2.875
 11
2.632
 20
1.285
 21
1.348
  0
LINE
  8
0
 10
2.632
 11
2.398
 20
1.348
 21
1.44
  0
LINE
  8
0
 10
2.398
 11
2.178
 20
1.44
 21
1.561
  0
LINE
  8
0
 10
2.178
 11
1.975
 20
1.561
 21
1.709
  0
LINE
  8
0
 10
1.975
 11
1.792
 20
1.709
 21
1.881
  0
LINE
  8
0
 10
1.792
 11
1.632
 20
1.881
 21
2.074
  0
LINE
  8
0
 10
1.632
 11
1.497
 20
2.074
 21
2.286
  0
LINE
  8
0
 10
1.497
 11
1.39
 20
2.286
 21
2.514
  0
LINE
  8
0
 10
1.39
 11
1.313
 20
2.514
 21
2.753
  0
LINE
  8
0
 10
1.313
 11
1.266
 20
2.753
 21
2.999
  0
LINE
  8
0
 10
1.266
 11
1.25
 20
2.999
 21
3.25
  0
LINE
  8
0
 10
28.35
 11
28.367
 20
-29.803
 21
-29.614
  0
LINE
  8
0
 10
28.367
 11
28.409
 20
-29.614
 21
-29.431
  0
LINE
  8
0
 10
28.409
 11
28.473
 20
-29.431
 21
-29.253
  0
LINE
  8
0
 10
28.473
 11
28.558
 20
-29.253
 21
-29.086
  0
LINE
  8
0
 10
28.558
 11
28.664
 20
-29.086
 21
-28.93
  0
LINE
  8
0
 10
28.664
 11
28.789
 20
-28.93
 21
-28.789
  0
LINE
  8
0
 10
28.789
 11
28.93
 20
-28.789
 21
-28.664
  0
LINE
  8
0
 10
28.93
 11
29.086
 20
-28.664
 21
-28.558
  0
LINE
  8
0
 10
29.086
 11
29.253
 20
-28.558
 21
-28.473
  0
LINE
  8
0
 10
29.253
 11
29.431
 20
-28.473
 21
-28.409
  0
LINE
  8
0
 10
29.431
 11
29.614
 20
-28.409
 21
-28.367
  0
LINE
  8
0
 10
29.614
 11
29.803
 20
-28.367
 21
-28.35
  0
LINE
  8
0
 10
29.803
 11
29.991
 20
-28.35
 21
-28.356
  0
LINE
  8
0
 10
29.991
 11
30.176
 20
-28.356
 21
-28.386
  0
LINE
  8
0
 10
30.176
 11
30.357
 20
-28.386
 21
-28.438
  0
LINE
  8
0
 10
30.357
 11
30.53
 20
-28.438
 21
-28.512
  0
LINE
  8
0
 10
30.53
 11
30.692
 20
-28.512
 21
-28.609
  0
LINE
  8
0
 10
30.692
 11
30.841
 20
-28.609
 21
-28.724
  0
LINE
  8
0
 10
30.841
 11
30.974
 20
-28.724
 21
-28.857
  0
LINE
  8
0
 10
30.974
 11
31.09
 20
-28.857
 21
-29.006
  0
LINE
  8
0
 10
31.09
 11
31.186
 20
-29.006
 21
-29.168
  0
LINE
  8
0
 10
31.186
 11
31.261
 20
-29.168
 21
-29.342
  0
LINE
  8
0
 10
31.261
 11
31.313
 20
-29.342
 21
-29.523
  0
LINE
  8
0
 10
31.313
 11
31.343
 20
-29.523
 21
-29.708
  0
LINE
  8
0
 10
31.343
 11
31.348
 20
-29.708
 21
-29.896
  0
LINE
  8
0
 10
31.348
 11
31.331
 20
-29.896
 21
-30.084
  0
LINE
  8
0
 10
31.331
 11
31.29
 20
-30.084
 21
-30.267
  0
LINE
  8
0
 10
31.29
 11
31.226
 20
-30.267
 21
-30.445
  0
LINE
  8
0
 10
31.226
 11
31.14
 20
-30.445
 21
-30.613
  0
LINE
  8
0
 10
31.14
 11
31.034
 20
-30.613
 21
-30.768
  0
LINE
  8
0
 10
31.034
 11
30.91
 20
-30.768
 21
-30.91
  0
LINE
  8
0
 10
30.91
 11
30.768
 20
-30.91
 21
-31.034
  0
LINE
  8
0
 10
30.768
 11
30.613
 20
-31.034
 21
-31.14
  0
LINE
  8
0
 10
30.613
 11
30.445
 20
-31.14
 21
-31.226
  0
LINE
  8
0
 10
30.445
 11
30.267
 20
-31.226
 21
-31.29
  0
LINE
  8
0
 10
30.267
 11
30.084
 20
-31.29
 21
-31.331
  0
LINE
  8
0
 10
30.084
 11
29.896
 20
-31.331
 21
-31.348
  0
LINE
  8
0
 10
29.896
 11
29.708
 20
-31.348
 21
-31.343
  0
LINE
  8
0
 10
29.708
 11
29.523
 20
-31.343
 21
-31.313
  0
LINE
  8
0
 10
29.523
 11
29.342
 20
-31.313
 21
-31.261
  0
LINE
  8
0
 10
29.342
 11
29.168
 20
-31.261
 21
-31.186
  0
LINE
  8
0
 10
29.168
 11
29.006
 20
-31.186
 21
-31.09
  0
LINE
  8
0
 10
29.006
 11
28.857
 20
-31.09
 21
-30.974
  0
LINE
  8
0
 10
28.857
 11
28.724
 20
-30.974
 21
-30.841
  0
LINE
  8
0
 10
28.724
 11
28.609
 20
-30.841
 21
-30.692
  0
LINE
  8
0
 10
28.609
 11
28.512
 20
-30.692
 21
-30.53
  0
LINE
  8
0
 10
28.512
 11
28.438
 20
-30.53
 21
-30.357
  0
LINE
  8
0
 10
28.438
 11
28.386
 20
-30.357
 21
-30.176
  0
LINE
  8
0
 10
28.386
 11
28.356
 20
-30.176
 21
-29.991
  0
LINE
  8
0
 10
28.356
 11
28.35
 20
-29.991
 21
-29.803
  0
LINE
  8
0
 10
28.35
 11
28.356
 20
29.803
 21
29.991
  0
LINE
  8
0
 10
28.356
 11
28.386
 20
29.991
 21
30.176
  0
LINE
  8
0
 10
28.386
 11
28.438
 20
30.176
 21
30.357
  0
LINE
  8
0
 10
28.438
 11
28.512
 20
30.357
 21
30.53
  0
LINE
  8
0
 10
28.512
 11
28.609
 20
30.53
 21
30.692
  0
LINE
  8
0
 10
28.609
 11
28.724
 20
30.692
 21
30.841
  0
LINE
  8
0
 10
28.724
 11
28.857
 20
30.841
 21
30.974
  0
LINE
  8
0
 10
28.857
 11
29.006
 20
30.974
 21
31.09
  0
LINE
  8
0
 10
29.006
 11
29.168
 20
31.09
 21
31.186
  0
LINE
  8
0
 10
29.168
 11
29.342
 20
31.186
 21
31.261
  0
LINE
  8
0
 10
29.342
 11
29.523
 20
31.261
 21
31.313
  0
LINE
  8
0
 10
29.523
 11
29.708
 20
31.313
 21
31.343
  0
LINE
  8
0
 10
29.708
 11
29.896
 20
31.343
 21
31.348
  0
LINE
  8
0
 10
29.896
 11
30.084
 20
31.348
 21
31.331
  0
LINE
  8
0
 10
30.084
 11
30.267
 20
31.331
 21
31.29
  0
LINE
  8
0
 10
30.267
 11
30.445
 20
31.29
 21
31.226
  0
LINE
  8
0
 10
30.445
 11
30.613
 20
31.226
 21
31.14
  0
LINE
  8
0
 10
30.613
 11
30.768
 20
31.14
 21
31.034
  0
LINE
  8
0
 10
30.768
 11
30.91
 20
31.034
 21
30.91
  0
LINE
  8
0
 10
30.91
 11
31.034
 20
30.91
 21
30.768
  0
LINE
  8
0
 10
31.034
 11
31.14
 20
30.768
 21
30.613
  0
LINE
  8
0
 10
31.14
 11
31.226
 20
30.613
 21
30.445
  0
LINE
  8
0
 10
31.226
 11
31.29
 20
30.445
 21
30.267
  0
LINE
  8
0
 10
31.29
 11
31.331
 20
30.267
 21
30.084
  0
LINE
  8
0
 10
31.331
 11
31.348
 20
30.084
 21
29.896
  0
LINE
  8
0
 10
31.348
 11
31.343
 20
29.896
 21
29.708
  0
LINE
  8
0
 10
31.343
 11
31.313
 20
29.708
 21
29.523
  0
LINE
  8
0
 10
31.313
 11
31.261
 20
29.523
 21
29.342
  0
LINE
  8
0
 10
31.261
 11
31.186
 20
29.342
 21
29.168
  0
LINE
  8
0
 10
31.186
 11
31.09
 20
29.168
 21
29.006
  0
LINE
  8
0
 10
31.09
 11
30.974
 20
29.006
 21
28.857
  0
LINE
  8
0
 10
30.974
 11
30.841
 20
28.857
 21
28.724
  0
LINE
  8
0
 10
30.841
 11
30.692
 20
28.724
 21
28.609
  0
LINE
  8
0
 10
30.692
 11
30.53
 20
28.609
 21
28.512
  0
LINE
  8
0
 10
30.53
 11
30.357
 20
28.512
 21
28.438
  0
LINE
  8
0
 10
30.357
 11
30.176
 20
28.438
 21
28.386
  0
LINE
  8
0
 10
30.176
 11
29.991
 20
28.386
 21
28.356
  0
LINE
  8
0
 10
29.991
 11
29.803
 20
28.356
 21
28.35
  0
LINE
  8
0
 10
29.803
 11
29.614
 20
28.35
 21
28.367
  0
LINE
  8
0
 10
29.614
 11
29.431
 20
28.367
 21
28.409
  0
LINE
  8
0
 10
29.431
 11
29.253
 20
28.409
 21
28.473
  0
LINE
  8
0
 10
29.253
 11
29.086
 20
28.473
 21
28.558
  0
LINE
  8
0
 10
29.086
 11
28.93
 20
28.558
 21
28.664
  0
LINE
  8
0
 10
28.93
 11
28.789
 20
28.664
 21
28.789
  0
LINE
  8
0
 10
28.789
 11
28.664
 20
28.789
 21
28.93
  0
LINE
  8
0
 10
28.664
 11
28.558
 20
28.93
 21
29.086
  0
LINE
  8
0
 10
28.558
 11
28.473
 20
29.086
 21
29.253
  0
LINE
  8
0
 10
28.473
 11
28.409
 20
29.253
 21
29.431
  0
LINE
  8
0
 10
28.409
 11
28.367
 20
29.431
 21
29.614
  0
LINE
  8
0
 10
28.367
 11
28.35
 20
29.614
 21
29.803
  0
LINE
  8
0
 10
30.801
 11
30.848
 20
-34.673
 21
-34.173
  0
LINE
  8
0
 10
30.848
 11
30.958
 20
-34.173
 21
-33.683
  0
LINE
  8
0
 10
30.958
 11
31.128
 20
-33.683
 21
-33.21
  0
LINE
  8
0
 10
31.128
 11
31.356
 20
-33.21
 21
-32.763
  0
LINE
  8
0
 10
31.356
 11
31.639
 20
-32.763
 21
-32.347
  0
LINE
  8
0
 10
31.639
 11
31.971
 20
-32.347
 21
-31.971
  0
LINE
  8
0
 10
31.971
 11
32.347
 20
-31.971
 21
-31.639
  0
LINE
  8
0
 10
32.347
 11
32.763
 20
-31.639
 21
-31.356
  0
LINE
  8
0
 10
32.763
 11
33.21
 20
-31.356
 21
-31.128
  0
LINE
  8
0
 10
33.21
 11
33.683
 20
-31.128
 21
-30.958
  0
LINE
  8
0
 10
33.683
 11
34.173
 20
-30.958
 21
-30.848
  0
LINE
  8
0
 10
34.173
 11
34.673
 20
-30.848
 21
-30.801
  0
LINE
  8
0
 10
34.673
 11
35.175
 20
-30.801
 21
-30.817
  0
LINE
  8
0
 10
35.175
 11
35.672
 20
-30.817
 21
-30.896
  0
LINE
  8
0
 10
35.672
 11
36.154
 20
-30.896
 21
-31.036
  0
LINE
  8
0
 10
36.154
 11
36.615
 20
-31.036
 21
-31.235
  0
LINE
  8
0
 10
36.615
 11
37.047
 20
-31.235
 21
-31.49
  0
LINE
  8
0
 10
37.047
 11
37.444
 20
-31.49
 21
-31.799
  0
LINE
  8
0
 10
37.444
 11
37.799
 20
-31.799
 21
-32.154
  0
LINE
  8
0
 10
37.799
 11
38.108
 20
-32.154
 21
-32.551
  0
LINE
  8
0
 10
38.108
 11
38.363
 20
-32.551
 21
-32.983
  0
LINE
  8
0
 10
38.363
 11
38.562
 20
-32.983
 21
-33.444
  0
LINE
  8
0
 10
38.562
 11
38.702
 20
-33.444
 21
-33.926
  0
LINE
  8
0
 10
38.702
 11
38.781
 20
-33.926
 21
-34.423
  0
LINE
  8
0
 10
38.781
 11
38.797
 20
-34.423
 21
-34.925
  0
LINE
  8
0
 10
38.797
 11
38.75
 20
-34.925
 21
-35.425
  0
LINE
  8
0
 10
38.75
 11
38.64
 20
-35.425
 21
-35.915
  0
LINE
  8
0
 10
38.64
 11
38.47
 20
-35.915
 21
-36.388
  0
LINE
  8
0
 10
38.47
 11
38.242
 20
-36.388
 21
-36.835
  0
LINE
  8
0
 10
38.242
 11
37.959
 20
-36.835
 21
-37.251
  0
LINE
  8
0
 10
37.959
 11
37.627
 20
-37.251
 21
-37.627
  0
LINE
  8
0
 10
37.627
 11
37.251
 20
-37.627
 21
-37.959
  0
LINE
  8
0
 10
37.251
 11
36.835
 20
-37.959
 21
-38.242
  0
LINE
  8
0
 10
36.835
 11
36.388
 20
-38.242
 21
-38.47
  0
LINE
  8
0
 10
36.388
 11
35.915
 20
-38.47
 21
-38.64
  0
LINE
  8
0
 10
35.915
 11
35.425
 20
-38.64
 21
-38.75
  0
LINE
  8
0
 10
35.425
 11
34.925
 20
-38.75
 21
-38.797
  0
LINE
  8
0
 10
34.925
 11
34.423
 20
-38.797
 21
-38.781
  0
LINE
  8
0
 10
34.423
 11
33.926
 20
-38.781
 21
-38.702
  0
LINE
  8
0
 10
33.926
 11
33.444
 20
-38.702
 21
-38.562
  0
LINE
  8
0
 10
33.444
 11
32.983
 20
-38.562
 21
-38.363
  0
LINE
  8
0
 10
32.983
 11
32.551
 20
-38.363
 21
-38.108
  0
LINE
  8
0
 10
32.551
 11
32.154
 20
-38.108
 21
-37.799
  0
LINE
  8
0
 10
32.154
 11
31.799
 20
-37.799
 21
-37.444
  0
LINE
  8
0
 10
31.799
 11
31.49
 20
-37.444
 21
-37.047
  0
LINE
  8
0
 10
31.49
 11
31.235
 20
-37.047
 21
-36.615
  0
LINE
  8
0
 10
31.235
 11
31.036
 20
-36.615
 21
-36.154
  0
LINE
  8
0
 10
31.036
 11
30.896
 20
-36.154
 21
-35.672
  0
LINE
  8
0
 10
30.896
 11
30.817
 20
-35.672
 21
-35.175
  0
LINE
  8
0
 10
30.817
 11
30.801
 20
-35.175
 21
-34.673
  0
LINE
  8
0
 10
30.801
 11
30.817
 20
34.673
 21
35.175
  0
LINE
  8
0
 10
30.817
 11
30.896
 20
35.175
 21
35.672
  0
LINE
  8
0
 10
30.896
 11
31.036
 20
35.672
 21
36.154
  0
LINE
  8
0
 10
31.036
 11
31.235
 20
36.154
 21
36.615
  0
LINE
  8
0
 10
31.235
 11
31.49
 20
36.615
 21
37.047
  0
LINE
  8
0
 10
31.49
 11
31.799
 20
37.047
 21
37.444
  0
LINE
  8
0
 10
31.799
 11
32.154
 20
37.444
 21
37.799
  0
LINE
  8
0
 10
32.154
 11
32.551
 20
37.799
 21
38.108
  0
LINE
  8
0
 10
32.551
 11
32.983
 20
38.108
 21
38.363
  0
LINE
  8
0
 10
32.983
 11
33.444
 20
38.363
 21
38.562
  0
LINE
  8
0
 10
33.444
 11
33.926
 20
38.562
 21
38.702
  0
LINE
  8
0
 10
33.926
 11
34.423
 20
38.702
 21
38.781
  0
LINE
  8
0
 10
34.423
 11
34.925
 20
38.781
 21
38.797
  0
LINE
  8
0
 10
34.925
 11
35.425
 20
38.797
 21
38.75
  0
LINE
  8
0
 10
35.425
 11
35.915
 20
38.75
 21
38.64
  0
LINE
  8
0
 10
35.915
 11
36.388
 20
38.64
 21
38.47
  0
LINE
  8
0
 10
36.388
 11
36.835
 20
38.47
 21
38.242
  0
LINE
  8
0
 10
36.835
 11
37.251
 20
38.242
 21
37.959
  0
LINE
  8
0
 10
37.251
 11
37.627
 20
37.959
 21
37.627
  0
LINE
  8
0
 10
37.627
 11
37.959
 20
37.627
 21
37.251
  0
LINE
  8
0
 10
37.959
 11
38.242
 20
37.251
 21
36.835
  0
LINE
  8
0
 10
38.242
 11
38.47
 20
36.835
 21
36.388
  0
LINE
  8
0
 10
38.47
 11
38.64
 20
36.388
 21
35.915
  0
LINE
  8
0
 10
38.64
 11
38.75
 20
35.915
 21
35.425
  0
LINE
  8
0
 10
38.75
 11
38.797
 20
35.425
 21
34.925
  0
LINE
  8
0
 10
38.797
 11
38.781
 20
34.925
 21
34.423
  0
LINE
  8
0
 10
38.781
 11
38.702
 20
34.423
 21
33.926
  0
LINE
  8
0
 10
38.702
 11
38.562
 20
33.926
 21
33.444
  0
LINE
  8
0
 10
38.562
 11
38.363
 20
33.444
 21
32.983
  0
LINE
  8
0
 10
38.363
 11
38.108
 20
32.983
 21
32.551
  0
LINE
  8
0
 10
38.108
 11
37.799
 20
32.551
 21
32.154
  0
LINE
  8
0
 10
37.799
 11
37.444
 20
32.154
 21
31.799
  0
LINE
  8
0
 10
37.444
 11
37.047
 20
31.799
 21
31.49
  0
LINE
  8
0
 10
37.047
 11
36.615
 20
31.49
 21
31.235
  0
LINE
  8
0
 10
36.615
 11
36.154
 20
31.235
 21
31.036
  0
LINE
  8
0
 10
36.154
 11
35.672
 20
31.036
 21
30.896
  0
LINE
  8
0
 10
35.672
 11
35.175
 20
30.896
 21
30.817
  0
LINE
  8
0
 10
35.175
 11
34.673
 20
30.817
 21
30.801
  0
LINE
  8
0
 10
34.673
 11
34.173
 20
30.801
 21
30.848
  0
LINE
  8
0
 10
34.173
 11
33.683
 20
30.848
 21
30.958
  0
LINE
  8
0
 10
33.683
 11
33.21
 20
30.958
 21
31.128
  0
LINE
  8
0
 10
33.21
 11
32.763
 20
31.128
 21
31.356
  0
LINE
  8
0
 10
32.763
 11
32.347
 20
31.356
 21
31.639
  0
LINE
  8
0
 10
32.347
 11
31.971
 20
31.639
 21
31.971
  0
LINE
  8
0
 10
31.971
 11
31.639
 20
31.971
 21
32.347
  0
LINE
  8
0
 10
31.639
 11
31.356
 20
32.347
 21
32.763
  0
LINE
  8
0
 10
31.356
 11
31.128
 20
32.763
 21
33.21
  0
LINE
  8
0
 10
31.128
 11
30.958
 20
33.21
 21
33.683
  0
LINE
  8
0
 10
30.958
 11
30.848
 20
33.683
 21
34.173
  0
LINE
  8
0
 10
30.848
 11
30.801
 20
34.173
 21
34.673
  0
ENDSEC
  0
SECTION
  2
OBJECTS
  0
DICTIONARY
  0
ENDSEC
  0
EOF
